<svg xmlns="http://www.w3.org/2000/svg" xmlns:xlink="http://www.w3.org/1999/xlink" width="197.505" height="65.549" viewBox="0 0 197.505 65.549"><defs><style>.a{fill-rule:evenodd;fill:url(#a);}.b{fill:#fff;}</style><linearGradient id="a" x1="0.5" x2="0.5" y2="1" gradientUnits="objectBoundingBox"><stop offset="0" stop-color="#43a047"/><stop offset="1" stop-color="#43a047"/></linearGradient></defs><path class="a" d="M7.954,0H190.181c2.656,0,3.62.277,4.59.8a5.415,5.415,0,0,1,2.253,2.252c.52.972.8,1.935.8,4.591V57.91c0,2.656-.277,3.62-.8,4.59a5.415,5.415,0,0,1-2.252,2.253c-.972.52-1.935.8-4.591.8H7.954c-2.656,0-3.62-.276-4.59-.8A5.415,5.415,0,0,1,1.111,62.5c-.52-.972-.8-1.935-.8-4.591V7.64c0-2.657.277-3.62.8-4.592A5.415,5.415,0,0,1,3.363.8C4.335.276,5.3,0,7.954,0Z" transform="translate(-0.315)"/><path class="b" d="M44.572,31.173a7.682,7.682,0,0,1,3.753-6.456,8.141,8.141,0,0,0-6.356-3.355c-2.674-.274-5.268,1.562-6.63,1.562-1.389,0-3.487-1.535-5.747-1.49a8.491,8.491,0,0,0-7.123,4.242c-3.08,5.206-.783,12.857,2.168,17.065,1.476,2.063,3.2,4.363,5.46,4.282,2.208-.088,3.033-1.374,5.7-1.374,2.641,0,3.416,1.374,5.719,1.322,2.37-.036,3.863-2.07,5.288-4.15a16.845,16.845,0,0,0,2.418-4.808,7.474,7.474,0,0,1-4.649-6.84Zm-4.35-12.58A7.45,7.45,0,0,0,42,13.167a7.961,7.961,0,0,0-5.108,2.58,7.1,7.1,0,0,0-1.822,5.226,6.586,6.586,0,0,0,5.155-2.38Zm34.162-4.54h3.032a5.319,5.319,0,0,1,2.57.6,4.116,4.116,0,0,1,1.688,1.675,5.082,5.082,0,0,1,.589,2.47,5.071,5.071,0,0,1-.59,2.47,4.116,4.116,0,0,1-1.688,1.675,5.312,5.312,0,0,1-2.569.6H74.384V14.052Zm3.006,8.064a3.39,3.39,0,0,0,2.483-.88,3.28,3.28,0,0,0,.893-2.444,3.283,3.283,0,0,0-.893-2.437,3.373,3.373,0,0,0-2.483-.887H75.867v6.648Zm9.3,1.628a3.56,3.56,0,0,1-1.828-.47,3.306,3.306,0,0,1-1.258-1.29,3.938,3.938,0,0,1,0-3.656,3.305,3.305,0,0,1,1.258-1.29,3.562,3.562,0,0,1,1.828-.47,3.521,3.521,0,0,1,1.827.476,3.346,3.346,0,0,1,1.258,1.3,3.907,3.907,0,0,1,0,3.641,3.3,3.3,0,0,1-1.258,1.291A3.559,3.559,0,0,1,86.686,23.745Zm0-1.337a2.055,2.055,0,0,0,1.033-.271,2,2,0,0,0,.761-.782,2.418,2.418,0,0,0,.285-1.2,2.376,2.376,0,0,0-.285-1.192,2.008,2.008,0,0,0-.761-.775,2.1,2.1,0,0,0-2.066,0,2.013,2.013,0,0,0-.762.775,2.379,2.379,0,0,0-.284,1.192,2.426,2.426,0,0,0,.284,1.2,2.005,2.005,0,0,0,.762.782A2.062,2.062,0,0,0,86.686,22.408Zm3.986-5.628h1.575l1.364,4.833h.053l1.523-4.833h1.5l1.51,4.833h.052L99.61,16.78h1.55L99,23.534H97.464l-1.55-4.847h-.04l-1.535,4.847h-1.51L90.671,16.78Zm11.428,0h1.39v.887h.066a2.233,2.233,0,0,1,.868-.788,2.54,2.54,0,0,1,1.225-.31,2.379,2.379,0,0,1,1.873.72,2.852,2.852,0,0,1,.643,1.967v4.278h-1.457V19.455a1.541,1.541,0,0,0-.39-1.165,1.5,1.5,0,0,0-1.08-.371,1.476,1.476,0,0,0-.874.271,1.807,1.807,0,0,0-.6.722,2.244,2.244,0,0,0-.212.967v3.655H102.1Zm7.707-2.728h1.456v9.482h-1.456V14.052Zm6.263,9.693a3.556,3.556,0,0,1-1.827-.47,3.306,3.306,0,0,1-1.258-1.29,3.938,3.938,0,0,1,0-3.656,3.305,3.305,0,0,1,1.258-1.29,3.767,3.767,0,0,1,3.655.006,3.353,3.353,0,0,1,1.258,1.3,3.907,3.907,0,0,1,0,3.641,3.3,3.3,0,0,1-1.258,1.291A3.562,3.562,0,0,1,116.07,23.745Zm0-1.337a2.052,2.052,0,0,0,1.033-.271,2,2,0,0,0,.762-.782,2.418,2.418,0,0,0,.284-1.2,2.387,2.387,0,0,0-.284-1.192,2.008,2.008,0,0,0-.762-.775,2.1,2.1,0,0,0-2.066,0,2.018,2.018,0,0,0-.761.775,2.379,2.379,0,0,0-.285,1.192,2.415,2.415,0,0,0,.285,1.2,2.01,2.01,0,0,0,.761.782A2.062,2.062,0,0,0,116.07,22.408Zm6.992,1.337a2.864,2.864,0,0,1-1.3-.284,2.13,2.13,0,0,1-.887-.808,2.237,2.237,0,0,1-.318-1.185,1.979,1.979,0,0,1,.788-1.655,3.16,3.16,0,0,1,1.993-.61,4.687,4.687,0,0,1,1.073.113,3.889,3.889,0,0,1,.755.245v-.344A1.263,1.263,0,0,0,124.7,18.2a1.788,1.788,0,0,0-1.192-.391,2.175,2.175,0,0,0-.973.225,1.909,1.909,0,0,0-.735.622l-1.02-.78a3.04,3.04,0,0,1,1.166-.968,3.615,3.615,0,0,1,1.589-.344,3.245,3.245,0,0,1,2.264.722,2.606,2.606,0,0,1,.795,2.033v4.21h-1.43v-.807H125.1a2.285,2.285,0,0,1-.82.728,2.494,2.494,0,0,1-1.219.291Zm.252-1.2a1.824,1.824,0,0,0,1.853-1.841,2.964,2.964,0,0,0-.708-.277,3.3,3.3,0,0,0-.84-.106,1.85,1.85,0,0,0-1.206.324,1.05,1.05,0,0,0-.384.841.947.947,0,0,0,.358.761,1.391,1.391,0,0,0,.927.3Zm7.693,1.2a3.06,3.06,0,0,1-1.655-.463A3.28,3.28,0,0,1,128.18,22a4.182,4.182,0,0,1,0-3.694,3.28,3.28,0,0,1,1.172-1.278,3.06,3.06,0,0,1,1.655-.464,2.591,2.591,0,0,1,1.285.318,2.317,2.317,0,0,1,.86.781h.067l-.066-.953V14.052h1.456v9.482h-1.39V22.66h-.066a2.379,2.379,0,0,1-.861.768,2.59,2.59,0,0,1-1.285.317Zm.212-1.337a1.87,1.87,0,0,0,.987-.278,2.029,2.029,0,0,0,.735-.8,2.449,2.449,0,0,0,.278-1.178,2.411,2.411,0,0,0-.278-1.172,2.045,2.045,0,0,0-.735-.788,1.9,1.9,0,0,0-1.98,0,2.028,2.028,0,0,0-.741.788,2.4,2.4,0,0,0-.278,1.172,2.438,2.438,0,0,0,.278,1.178,2.007,2.007,0,0,0,.741.8A1.9,1.9,0,0,0,131.219,22.408Zm11.349,1.337a3.556,3.556,0,0,1-1.827-.47,3.306,3.306,0,0,1-1.258-1.29,3.938,3.938,0,0,1,0-3.656,3.3,3.3,0,0,1,1.258-1.29,3.765,3.765,0,0,1,3.654.006,3.346,3.346,0,0,1,1.258,1.3,3.907,3.907,0,0,1,0,3.641,3.3,3.3,0,0,1-1.258,1.291A3.556,3.556,0,0,1,142.568,23.745Zm0-1.337a2.055,2.055,0,0,0,1.033-.271,2,2,0,0,0,.761-.782,2.418,2.418,0,0,0,.285-1.2,2.376,2.376,0,0,0-.285-1.192,2.008,2.008,0,0,0-.761-.775,2.1,2.1,0,0,0-2.066,0,2,2,0,0,0-.761.775,2.379,2.379,0,0,0-.285,1.192,2.415,2.415,0,0,0,.285,1.2,2,2,0,0,0,.761.782A2.062,2.062,0,0,0,142.568,22.408Zm4.74-5.628H148.7v.887h.066a2.233,2.233,0,0,1,.868-.788,2.54,2.54,0,0,1,1.225-.31,2.379,2.379,0,0,1,1.873.72,2.852,2.852,0,0,1,.643,1.967v4.278h-1.457V19.455a1.541,1.541,0,0,0-.39-1.165,1.5,1.5,0,0,0-1.08-.371,1.476,1.476,0,0,0-.874.271,1.807,1.807,0,0,0-.6.722,2.244,2.244,0,0,0-.212.967v3.655h-1.456V16.78Zm13.574,6.86a2.449,2.449,0,0,1-.848-.146,1.86,1.86,0,0,1-.648-.384,2.093,2.093,0,0,1-.57-1.55V18.065h-1.178V16.78h1.178V14.873h1.457V16.78h1.642v1.285h-1.642v3.178a1.106,1.106,0,0,0,.212.768.808.808,0,0,0,.688.265,1.211,1.211,0,0,0,.4-.06,1.66,1.66,0,0,0,.37-.192v1.417a2.553,2.553,0,0,1-1.059.2Zm2.49-9.588h1.456v2.582l-.066,1.033h.066a2.219,2.219,0,0,1,.868-.788,2.565,2.565,0,0,1,1.238-.31,2.4,2.4,0,0,1,1.88.72,2.835,2.835,0,0,1,.649,1.967v4.278h-1.457V19.455a1.515,1.515,0,0,0-.4-1.152,1.464,1.464,0,0,0-1.052-.384,1.486,1.486,0,0,0-.881.278,1.929,1.929,0,0,0-.616.735,2.172,2.172,0,0,0-.225.973v3.629h-1.456V14.052ZM174.2,23.745a3.446,3.446,0,0,1-1.781-.463A3.266,3.266,0,0,1,171.191,22a3.768,3.768,0,0,1-.444-1.834,3.843,3.843,0,0,1,.43-1.794,3.385,3.385,0,0,1,1.2-1.318,3.18,3.18,0,0,1,1.747-.49,3.363,3.363,0,0,1,1.768.45,2.95,2.95,0,0,1,1.139,1.232,3.887,3.887,0,0,1,.39,1.761,3.32,3.32,0,0,1-.04.464H172.2a2.058,2.058,0,0,0,.669,1.45,2.031,2.031,0,0,0,1.37.51,2,2,0,0,0,1.08-.285,2.139,2.139,0,0,0,.735-.775l1.231.583a3.628,3.628,0,0,1-1.245,1.31,3.409,3.409,0,0,1-1.84.477Zm1.734-4.383a1.683,1.683,0,0,0-.225-.708,1.611,1.611,0,0,0-.6-.59,1.921,1.921,0,0,0-.987-.238,1.755,1.755,0,0,0-1.185.417,2.165,2.165,0,0,0-.669,1.12h3.668Zm-97.615,13.2H81.9l6.207,16.52H84.668l-1.385-3.945H76.961l-1.384,3.945H72.139l6.184-16.52Zm3.945,9.714-1.453-4.153-.6-1.985H80.03l-.6,1.985L77.954,42.28h4.314Zm6.74-4.961h2.838v1.43h.184a3.877,3.877,0,0,1,1.408-1.28,4.257,4.257,0,0,1,2.123-.52,5.451,5.451,0,0,1,4.937,3.023,7.457,7.457,0,0,1,0,6.473,5.521,5.521,0,0,1-2.042,2.215,5.452,5.452,0,0,1-2.895.8,4.406,4.406,0,0,1-2.135-.508,3.564,3.564,0,0,1-1.4-1.27h-.184l.184,1.662v4.73H89.008V37.32Zm6.022,9.345a3.058,3.058,0,0,0,1.592-.439A3.22,3.22,0,0,0,97.8,45a3.916,3.916,0,0,0,0-3.6,3.141,3.141,0,0,0-2.769-1.638,3.086,3.086,0,0,0-1.57.427A3.129,3.129,0,0,0,92.284,41.4a3.918,3.918,0,0,0,0,3.6,3.217,3.217,0,0,0,1.177,1.222,3.024,3.024,0,0,0,1.569.439Zm7.27-9.345h2.838v1.43h.185a3.874,3.874,0,0,1,1.407-1.28,4.257,4.257,0,0,1,2.123-.52,5.451,5.451,0,0,1,4.938,3.023,7.466,7.466,0,0,1,0,6.473,5.528,5.528,0,0,1-2.042,2.215,5.458,5.458,0,0,1-2.9.8,4.4,4.4,0,0,1-2.134-.508,3.557,3.557,0,0,1-1.4-1.27h-.185l.185,1.662v4.73H102.3V37.32Zm6.022,9.345a3.055,3.055,0,0,0,1.592-.439A3.213,3.213,0,0,0,111.091,45a3.916,3.916,0,0,0,0-3.6,3.141,3.141,0,0,0-2.769-1.638,3.08,3.08,0,0,0-1.569.427,3.129,3.129,0,0,0-1.177,1.211,3.918,3.918,0,0,0,0,3.6,3.224,3.224,0,0,0,1.177,1.222,3.024,3.024,0,0,0,1.57.439Zm16.756,2.792a6.29,6.29,0,0,1-3.83-1.223,6.434,6.434,0,0,1-2.331-3.461l2.93-1.154a4.323,4.323,0,0,0,1.177,2.1,2.907,2.907,0,0,0,2.077.784,3.008,3.008,0,0,0,1.776-.519,1.664,1.664,0,0,0,.739-1.442,1.88,1.88,0,0,0-.7-1.511,9.087,9.087,0,0,0-2.5-1.258l-1.015-.369a7.012,7.012,0,0,1-2.722-1.7,3.915,3.915,0,0,1-1.131-2.873,4.319,4.319,0,0,1,.67-2.353,4.608,4.608,0,0,1,1.891-1.673,6.114,6.114,0,0,1,2.769-.611,5.218,5.218,0,0,1,5.307,3.507l-2.746,1.154a2.75,2.75,0,0,0-.888-1.281,2.486,2.486,0,0,0-1.627-.52,2.8,2.8,0,0,0-1.673.474,1.455,1.455,0,0,0-.657,1.234,1.581,1.581,0,0,0,.623,1.258,6.663,6.663,0,0,0,2.053,1l1.038.347a8,8,0,0,1,3.288,1.95,4.945,4.945,0,0,1,.312,5.906,5.083,5.083,0,0,1-2.134,1.673,6.81,6.81,0,0,1-2.688.554Zm11.792-.185a4.744,4.744,0,0,1-1.615-.265,3.209,3.209,0,0,1-1.2-.727,3.9,3.9,0,0,1-1.084-2.954V39.9h-2.054V37.32h2.054V34h3.022V37.32h2.884V39.9h-2.884v4.869a1.777,1.777,0,0,0,.393,1.292,1.41,1.41,0,0,0,1.107.369,1.972,1.972,0,0,0,.727-.115,5.617,5.617,0,0,0,.75-.393V48.88a5.659,5.659,0,0,1-2.1.392Zm8.793.185a6.418,6.418,0,0,1-3.253-.82,5.818,5.818,0,0,1-2.227-2.238,6.788,6.788,0,0,1,0-6.379,5.8,5.8,0,0,1,2.227-2.25,6.817,6.817,0,0,1,6.483,0,5.8,5.8,0,0,1,2.227,2.25,6.788,6.788,0,0,1,0,6.379,5.818,5.818,0,0,1-2.227,2.238,6.371,6.371,0,0,1-3.23.82Zm0-2.792a3.235,3.235,0,0,0,1.615-.416,3.046,3.046,0,0,0,1.177-1.2,3.722,3.722,0,0,0,.438-1.845,3.678,3.678,0,0,0-.438-1.823,3.046,3.046,0,0,0-1.177-1.2,3.35,3.35,0,0,0-3.23,0,3.125,3.125,0,0,0-1.188,1.2,3.6,3.6,0,0,0-.45,1.823,3.663,3.663,0,0,0,.45,1.834,3.1,3.1,0,0,0,1.188,1.211,3.235,3.235,0,0,0,1.615.416Zm7.386-9.345h2.838v1.569h.184a3.484,3.484,0,0,1,1.362-1.373,3.935,3.935,0,0,1,2.03-.542,4.144,4.144,0,0,1,1.477.254v3.022a9.8,9.8,0,0,0-1.05-.334,3.847,3.847,0,0,0-.911-.1,2.587,2.587,0,0,0-2.123.969,3.762,3.762,0,0,0-.785,2.446v5.86h-3.022V37.32Zm13.73,12.137a6.236,6.236,0,0,1-3.16-.808,5.782,5.782,0,0,1-2.2-2.227A6.719,6.719,0,0,1,161.4,40.1a6.041,6.041,0,0,1,2.17-2.295,5.761,5.761,0,0,1,3.091-.854,6.015,6.015,0,0,1,3.138.784,5.115,5.115,0,0,1,2,2.146,6.662,6.662,0,0,1,.68,3.023,7.193,7.193,0,0,1-.069,1.015h-8.837a3.33,3.33,0,0,0,1.12,2.134,3.257,3.257,0,0,0,2.134.727,3.411,3.411,0,0,0,1.788-.45,3.324,3.324,0,0,0,1.188-1.211l2.446,1.2a5.9,5.9,0,0,1-5.469,3.138Zm2.792-7.684a2.324,2.324,0,0,0-.4-1.1,2.817,2.817,0,0,0-.992-.9,2.985,2.985,0,0,0-1.488-.357,2.832,2.832,0,0,0-1.857.634,3.555,3.555,0,0,0-1.12,1.72h5.861Z" transform="translate(-0.315)"/></svg>