<svg xmlns="http://www.w3.org/2000/svg" xmlns:xlink="http://www.w3.org/1999/xlink" width="197.505" height="65.549" viewBox="0 0 197.505 65.549"><defs><style>.a{fill-rule:evenodd;fill:url(#a);}.b{fill:url(#b);}.c{fill:url(#c);}.d{fill:url(#d);}.e{fill:url(#e);}.f{opacity:0.2;}.g{opacity:0.12;}.h,.i{fill:#fff;}.h{opacity:0.25;}</style><linearGradient id="a" x1="0.5" x2="0.5" y2="1" gradientUnits="objectBoundingBox"><stop offset="0" stop-color="#43a047"/><stop offset="1" stop-color="#43a047"/></linearGradient><linearGradient id="b" x1="0.61" y1="0.049" x2="0.266" y2="0.719" gradientUnits="objectBoundingBox"><stop offset="0" stop-color="#00a0ff"/><stop offset="0.01" stop-color="#00a1ff"/><stop offset="0.26" stop-color="#00beff"/><stop offset="0.51" stop-color="#00d2ff"/><stop offset="0.76" stop-color="#00dfff"/><stop offset="1" stop-color="#00e3ff"/></linearGradient><linearGradient id="c" x1="1.077" y1="0.5" x2="-1.306" y2="0.5" gradientUnits="objectBoundingBox"><stop offset="0" stop-color="#ffe000"/><stop offset="0.41" stop-color="#ffbd00"/><stop offset="0.78" stop-color="orange"/><stop offset="1" stop-color="#ff9c00"/></linearGradient><linearGradient id="d" x1="0.862" y1="0.309" x2="-0.502" y2="1.362" gradientUnits="objectBoundingBox"><stop offset="0" stop-color="#ff3a44"/><stop offset="1" stop-color="#c31162"/></linearGradient><linearGradient id="e" x1="-0.188" y1="-0.12" x2="0.421" y2="0.351" gradientUnits="objectBoundingBox"><stop offset="0" stop-color="#32a071"/><stop offset="0.07" stop-color="#2da771"/><stop offset="0.48" stop-color="#15cf74"/><stop offset="0.8" stop-color="#06e775"/><stop offset="1" stop-color="#00f076"/></linearGradient></defs><path class="a" d="M7.64,0H189.866c2.656,0,3.62.277,4.59.8a5.415,5.415,0,0,1,2.253,2.252c.52.972.8,1.935.8,4.591V57.91c0,2.656-.277,3.62-.8,4.59a5.415,5.415,0,0,1-2.252,2.253c-.972.52-1.935.8-4.591.8H7.639c-2.656,0-3.62-.276-4.59-.8A5.415,5.415,0,0,1,.8,62.5c-.52-.972-.8-1.935-.8-4.591V7.64C0,4.983.277,4.02.8,3.048A5.415,5.415,0,0,1,3.048.8C4.02.276,4.983,0,7.64,0Z"/><g transform="translate(23.85 18)"><path class="b" d="M.58.5a2.474,2.474,0,0,0-.568,1.73V29.58A2.474,2.474,0,0,0,.58,31.31l.087.087,15.3-15.305v-.359L.667.415Z" transform="translate(0 0)"/><path class="c" d="M21.033,21.2l-5.064-5.106v-.359l5.064-5.118.111.062,6.065,3.449c1.729.977,1.729,2.584,0,3.573l-6.04,3.437-.136.062Z" transform="translate(0 0)"/><path class="d" d="M21.181,21.123l-5.212-5.217L.58,31.311a2.014,2.014,0,0,0,2.57.074L21.194,21.123" transform="translate(0 0)"/><path class="e" d="M21.181,10.689,3.137.427A2.012,2.012,0,0,0,.568.5l15.4,15.4,5.212-5.217Z" transform="translate(0 0)"/><path class="f" d="M44.883,39.012l-17.9,10.2a2.06,2.06,0,0,1-2.47,0l-.087.086.087.087a2.049,2.049,0,0,0,2.47,0L45.031,39.123l-.148-.11Z" transform="translate(-23.85 -18)"/><path class="g" d="M24.43,49.138a2.474,2.474,0,0,1-.568-1.731v.185a2.474,2.474,0,0,0,.568,1.731l.087-.087ZM51.06,35.513l-6.176,3.5.111.11,6.065-3.437a2.164,2.164,0,0,0,1.235-1.78,2.3,2.3,0,0,1-1.235,1.607Z" transform="translate(-23.85 -18)"/><path class="h" d="M26.987,18.6,51.06,32.3a2.3,2.3,0,0,1,1.235,1.607,2.164,2.164,0,0,0-1.235-1.78l-24.073-13.7c-1.729-.976-3.137-.16-3.137,1.818v.185C23.887,18.44,25.27,17.624,26.987,18.6Z" transform="translate(-23.85 -18)"/></g><path class="i" d="M78.558,23.745a4.952,4.952,0,0,1-2.49-.648,4.956,4.956,0,0,1,0-8.607,4.942,4.942,0,0,1,2.49-.65,5.179,5.179,0,0,1,2,.384A4.24,4.24,0,0,1,82.107,15.3L81.074,16.33a3.149,3.149,0,0,0-1.106-.795,3.546,3.546,0,0,0-1.423-.278,3.494,3.494,0,0,0-1.709.437,3.309,3.309,0,0,0-1.271,1.245,3.842,3.842,0,0,0,0,3.708,3.323,3.323,0,0,0,1.271,1.245,3.817,3.817,0,0,0,3.139.185A3.608,3.608,0,0,0,81,21.4a2.543,2.543,0,0,0,.5-.729,3.166,3.166,0,0,0,.271-.953H78.545V18.4h4.621a4.372,4.372,0,0,1,.066.768,5.374,5.374,0,0,1-.278,1.728,3.646,3.646,0,0,1-.887,1.437,4.6,4.6,0,0,1-3.51,1.416Zm9.163,0a3.446,3.446,0,0,1-1.78-.463A3.266,3.266,0,0,1,84.709,22a3.768,3.768,0,0,1-.444-1.834,3.843,3.843,0,0,1,.43-1.794,3.385,3.385,0,0,1,1.2-1.318,3.18,3.18,0,0,1,1.748-.49,3.365,3.365,0,0,1,1.768.45,2.95,2.95,0,0,1,1.139,1.232,3.887,3.887,0,0,1,.39,1.761,3.319,3.319,0,0,1-.04.464H85.722a2.058,2.058,0,0,0,.669,1.45,2.029,2.029,0,0,0,1.37.51,2,2,0,0,0,1.08-.285,2.136,2.136,0,0,0,.734-.775l1.232.583a3.628,3.628,0,0,1-1.245,1.31,3.411,3.411,0,0,1-1.84.477Zm1.735-4.383a1.683,1.683,0,0,0-.225-.708,1.611,1.611,0,0,0-.6-.59,1.917,1.917,0,0,0-.986-.238,1.755,1.755,0,0,0-1.185.417,2.165,2.165,0,0,0-.669,1.12h3.668Zm5.376,4.278a2.444,2.444,0,0,1-.847-.146,1.86,1.86,0,0,1-.649-.384,2.093,2.093,0,0,1-.57-1.55V18.065H91.588V16.78h1.179V14.873h1.456V16.78h1.642v1.285H94.223v3.178a1.111,1.111,0,0,0,.212.768.811.811,0,0,0,.689.265,1.205,1.205,0,0,0,.4-.06,1.66,1.66,0,0,0,.37-.192v1.417a2.55,2.55,0,0,1-1.059.2Zm6.357-7.84a.973.973,0,1,1,.695-.285A.946.946,0,0,1,101.189,15.8Zm-.729.98h1.457v6.754H100.46Zm5.973,6.86a2.449,2.449,0,0,1-.848-.146,1.86,1.86,0,0,1-.649-.384,2.093,2.093,0,0,1-.57-1.55V18.065h-1.178V16.78h1.179V14.873h1.457V16.78h1.642v1.285h-1.642v3.178a1.111,1.111,0,0,0,.211.768.811.811,0,0,0,.689.265,1.2,1.2,0,0,0,.4-.06,1.66,1.66,0,0,0,.371-.192v1.417a2.555,2.555,0,0,1-1.06.2Zm8.687.1a3.56,3.56,0,0,1-1.828-.47,3.306,3.306,0,0,1-1.258-1.29,3.938,3.938,0,0,1,0-3.656,3.305,3.305,0,0,1,1.258-1.29,3.562,3.562,0,0,1,1.828-.47,3.521,3.521,0,0,1,1.827.476,3.346,3.346,0,0,1,1.258,1.3,3.907,3.907,0,0,1,0,3.641,3.3,3.3,0,0,1-1.258,1.291A3.559,3.559,0,0,1,115.12,23.745Zm0-1.337a2.048,2.048,0,0,0,1.032-.271,2,2,0,0,0,.762-.782,2.418,2.418,0,0,0,.285-1.2,2.376,2.376,0,0,0-.285-1.192,2.008,2.008,0,0,0-.762-.775,2.1,2.1,0,0,0-2.065,0,2.013,2.013,0,0,0-.762.775,2.379,2.379,0,0,0-.284,1.192,2.415,2.415,0,0,0,.284,1.2,2.005,2.005,0,0,0,.762.782A2.062,2.062,0,0,0,115.12,22.408Zm4.74-5.628h1.39v.887h.067a2.223,2.223,0,0,1,.867-.788,2.54,2.54,0,0,1,1.225-.31,2.38,2.38,0,0,1,1.874.72,2.857,2.857,0,0,1,.642,1.967v4.278h-1.456V19.455a1.537,1.537,0,0,0-.391-1.165,1.5,1.5,0,0,0-1.08-.371,1.475,1.475,0,0,0-.873.271,1.807,1.807,0,0,0-.6.722,2.244,2.244,0,0,0-.212.967v3.655H119.86V16.78ZM73.37,32.566h5.814a6.226,6.226,0,0,1,2.862.658,4.96,4.96,0,0,1,2.768,4.556,5.09,5.09,0,0,1-.738,2.723,4.99,4.99,0,0,1-2.03,1.858,6.226,6.226,0,0,1-2.862.657h-2.7v6.068H73.37V32.566Zm5.907,7.5a2.42,2.42,0,0,0,1.811-.67,2.22,2.22,0,0,0,.658-1.615,2.183,2.183,0,0,0-.658-1.6,2.448,2.448,0,0,0-1.811-.658H76.485v4.546Zm6.924-7.5h3.022V49.086H86.2V32.566Zm8.54,16.89a4.378,4.378,0,0,1-3.07-1.1,3.709,3.709,0,0,1-1.2-2.873,3.561,3.561,0,0,1,.623-2.077A4.018,4.018,0,0,1,92.8,42.026a5.818,5.818,0,0,1,2.4-.485,8.182,8.182,0,0,1,3.114.531v-.507a1.938,1.938,0,0,0-.726-1.57,2.97,2.97,0,0,0-1.95-.6,3.6,3.6,0,0,0-1.6.381,3.778,3.778,0,0,0-1.28,1l-1.938-1.523a5.694,5.694,0,0,1,2.145-1.707,6.6,6.6,0,0,1,2.815-.6A6.01,6.01,0,0,1,99.885,38.2a4.609,4.609,0,0,1,1.408,3.645v7.245H98.316v-1.2h-.184a4.006,4.006,0,0,1-1.4,1.131,4.361,4.361,0,0,1-2,.439Zm.714-2.353a2.692,2.692,0,0,0,2.088-.842,2.824,2.824,0,0,0,.773-1.973,5.73,5.73,0,0,0-2.468-.554q-2.355,0-2.354,1.754A1.486,1.486,0,0,0,94,46.652a2.121,2.121,0,0,0,1.453.45Zm11.124,1.43-4.961-11.213h3.438l3.046,7.314h.184l2.93-7.314h3.37L107.317,54.07h-3.253l2.515-5.537Zm17.886.924a6.29,6.29,0,0,1-3.83-1.223,6.427,6.427,0,0,1-2.33-3.461l2.93-1.154a4.314,4.314,0,0,0,1.176,2.1,2.907,2.907,0,0,0,2.077.784,3.008,3.008,0,0,0,1.776-.519A1.664,1.664,0,0,0,127,44.541a1.88,1.88,0,0,0-.7-1.511,9.093,9.093,0,0,0-2.5-1.258L122.78,41.4a7.012,7.012,0,0,1-2.722-1.7,3.914,3.914,0,0,1-1.13-2.873,4.326,4.326,0,0,1,.668-2.353,4.617,4.617,0,0,1,1.892-1.673,6.118,6.118,0,0,1,2.77-.611,5.215,5.215,0,0,1,5.306,3.507l-2.746,1.154a2.75,2.75,0,0,0-.888-1.281,2.486,2.486,0,0,0-1.627-.52,2.8,2.8,0,0,0-1.673.474,1.455,1.455,0,0,0-.657,1.234,1.581,1.581,0,0,0,.623,1.258,6.663,6.663,0,0,0,2.053,1l1.039.347a8.016,8.016,0,0,1,3.288,1.95,4.947,4.947,0,0,1,.311,5.906,5.083,5.083,0,0,1-2.134,1.673,6.81,6.81,0,0,1-2.688.554Zm11.792-.185a4.744,4.744,0,0,1-1.615-.265,3.209,3.209,0,0,1-1.2-.727,3.9,3.9,0,0,1-1.084-2.954V39.9H130.3V37.32h2.054V34h3.022V37.32h2.885V39.9H135.38v4.869a1.777,1.777,0,0,0,.393,1.292,1.41,1.41,0,0,0,1.107.369,1.968,1.968,0,0,0,.727-.115,5.617,5.617,0,0,0,.75-.393V48.88a5.659,5.659,0,0,1-2.1.392Zm8.793.185a6.418,6.418,0,0,1-3.253-.82A5.818,5.818,0,0,1,139.57,46.4a6.788,6.788,0,0,1,0-6.379,5.8,5.8,0,0,1,2.227-2.25,6.817,6.817,0,0,1,6.483,0,5.8,5.8,0,0,1,2.227,2.25,6.788,6.788,0,0,1,0,6.379,5.818,5.818,0,0,1-2.226,2.238,6.374,6.374,0,0,1-3.23.82Zm0-2.792a3.235,3.235,0,0,0,1.615-.416,3.046,3.046,0,0,0,1.177-1.2,3.722,3.722,0,0,0,.439-1.845,3.679,3.679,0,0,0-.439-1.823,3.046,3.046,0,0,0-1.177-1.2,3.35,3.35,0,0,0-3.23,0,3.125,3.125,0,0,0-1.188,1.2,3.6,3.6,0,0,0-.45,1.823,3.663,3.663,0,0,0,.45,1.834,3.1,3.1,0,0,0,1.188,1.211,3.235,3.235,0,0,0,1.615.416Zm7.386-9.345h2.838v1.569h.184a3.484,3.484,0,0,1,1.362-1.373,3.935,3.935,0,0,1,2.03-.542,4.14,4.14,0,0,1,1.477.254v3.022a9.8,9.8,0,0,0-1.05-.334,3.847,3.847,0,0,0-.911-.1,2.587,2.587,0,0,0-2.123.969,3.762,3.762,0,0,0-.785,2.446v5.86h-3.022V37.32Zm13.73,12.137a6.236,6.236,0,0,1-3.16-.808,5.782,5.782,0,0,1-2.2-2.227,6.719,6.719,0,0,1-.012-6.322,6.041,6.041,0,0,1,2.17-2.3,5.761,5.761,0,0,1,3.091-.854,6.015,6.015,0,0,1,3.138.784,5.115,5.115,0,0,1,2,2.146,6.662,6.662,0,0,1,.68,3.023,7.048,7.048,0,0,1-.069,1.015h-8.837a3.33,3.33,0,0,0,1.12,2.134,3.259,3.259,0,0,0,2.134.727,3.411,3.411,0,0,0,1.788-.45,3.324,3.324,0,0,0,1.188-1.211l2.446,1.2a5.9,5.9,0,0,1-5.468,3.138Zm2.792-7.684a2.333,2.333,0,0,0-.4-1.1,2.817,2.817,0,0,0-.993-.9,2.985,2.985,0,0,0-1.488-.357,2.832,2.832,0,0,0-1.857.634,3.569,3.569,0,0,0-1.12,1.72h5.861Z"/></svg>