<svg xmlns="http://www.w3.org/2000/svg" xmlns:xlink="http://www.w3.org/1999/xlink" width="157" height="211.182" viewBox="0 0 157 211.182"><defs><style>.a,.g{fill:#fff;}.b{clip-path:url(#a);}.c{fill:#f5f5f5;}.d{fill:#aeaeae;}.e{fill:#707070;}.f{fill:#fafafa;}.f,.g{stroke:#707070;}.h{fill:#e4e4e4;}.i{fill:#bbb;}.j{stroke:none;}.k{fill:none;}</style><clipPath id="a"><rect class="a" width="157" height="179" rx="10" transform="translate(-0.416)"/></clipPath></defs><g transform="translate(-474 -544.818)"><g class="b" transform="translate(474.416 577)"><rect class="c" width="268.948" height="178.821" transform="translate(-23.672)"/></g><g transform="translate(483.416 712)"><rect class="a" width="139" height="34" rx="10" transform="translate(-0.416)"/><rect class="d" width="114.219" height="6.819" rx="3.41" transform="translate(14.534 13.314)"/></g><g transform="translate(558.611 586.994)"><g transform="translate(0 0)"><rect class="e" width="64.401" height="20.883" rx="10.442"/><g class="f" transform="translate(10.403 6.435)"><circle class="j" cx="4.226" cy="4.226" r="4.226"/><circle class="k" cx="4.226" cy="4.226" r="3.726"/></g><g class="g" transform="translate(17.389 7.006)"><rect class="j" width="39" height="7" rx="3.5"/><rect class="k" x="0.5" y="0.5" width="38" height="6" rx="3"/></g></g></g><g transform="translate(483.602 622.794)"><rect class="h" width="139.174" height="76.381" rx="5" transform="translate(0 0)"/></g><g transform="translate(519.5 544.818)"><path class="i" d="M49.292,23.218a3.566,3.566,0,0,0,3.592-3.592V6.092a3.592,3.592,0,0,0-7.185,0v13.45A3.637,3.637,0,0,0,49.292,23.218Z" transform="translate(-15.792 -2.5)"/><path class="i" d="M25.918,24.865A3.6,3.6,0,0,0,29.26,27.12a4.243,4.243,0,0,0,1.42-.251A3.587,3.587,0,0,0,32.6,22.108L27.422,9.66a3.631,3.631,0,1,0-6.683,2.84Z" transform="translate(-11.633 -3.311)"/><path class="i" d="M66.853,26.872a3.9,3.9,0,0,0,1.42.251,3.6,3.6,0,0,0,3.342-2.256l5.18-12.448a3.686,3.686,0,0,0-1.921-4.762,3.875,3.875,0,0,0-4.845,2.089l-5.18,12.448A3.6,3.6,0,0,0,66.853,26.872Z" transform="translate(-18.901 -3.313)"/></g></g></svg>