<svg xmlns="http://www.w3.org/2000/svg" width="44" height="44" viewBox="0 0 44 44"><defs><style>.a{fill:none;}.b{fill:#fe6600;}</style></defs><path class="a" d="M0,0H44V44H0Z"/><path class="b" d="M14,18.5H10.333v3.667H14Zm7.333,0H17.667v3.667h3.667Zm7.333,0H25v3.667h3.667ZM32.333,5.667H30.5V2H26.833V5.667H12.167V2H8.5V5.667H6.667A3.65,3.65,0,0,0,3.018,9.333L3,35a3.666,3.666,0,0,0,3.667,3.667H32.333A3.677,3.677,0,0,0,36,35V9.333A3.677,3.677,0,0,0,32.333,5.667Zm0,29.333H6.667V14.833H32.333Z" transform="translate(2.5 1.667)"/></svg>