<svg xmlns="http://www.w3.org/2000/svg" xmlns:xlink="http://www.w3.org/1999/xlink" width="211.579" height="199.538" viewBox="0 0 211.579 199.538"><defs><style>.a{fill:url(#a);}.b{fill:#106514;}.c{fill:#43a047;}.d{fill:#fffdf3;}.e{fill:#e6e4db;}.f{fill:#88ff8d;}.g{fill:url(#f);}.h{fill:url(#l);}.i{fill:rgba(0,0,0,0.52);}.i,.j{mix-blend-mode:darken;isolation:isolate;}.j{fill:rgba(0,0,0,0.49);}.k{fill:#ffbf19;}.l{fill:#9d4492;}.m{fill:#9bec7d;}.n{fill:#ff623a;}.o{fill:#f73200;}.p{filter:url(#m);}.q{filter:url(#j);}.r{filter:url(#g);}.s{filter:url(#d);}.t{filter:url(#b);}</style><linearGradient id="a" x1="0.873" x2="0.873" y2="0.145" gradientUnits="objectBoundingBox"><stop offset="0" stop-color="#4fd468"/><stop offset="0.904" stop-color="#43a047"/><stop offset="1" stop-color="#43a047"/></linearGradient><filter id="b" x="51.5" y="35.384" width="108.641" height="100.559" filterUnits="userSpaceOnUse"><feOffset dy="3" input="SourceAlpha"/><feGaussianBlur stdDeviation="3" result="c"/><feFlood flood-opacity="0.118"/><feComposite operator="in" in2="c"/><feComposite in="SourceGraphic"/></filter><filter id="d" x="74.244" y="20.399" width="64.141" height="60.112" filterUnits="userSpaceOnUse"><feOffset dy="3" input="SourceAlpha"/><feGaussianBlur stdDeviation="3" result="e"/><feFlood flood-opacity="0.161"/><feComposite operator="in" in2="e"/><feComposite in="SourceGraphic"/></filter><linearGradient id="f" x1="-0.017" y1="0.271" x2="0.762" y2="0.837" gradientUnits="objectBoundingBox"><stop offset="0" stop-color="#4fd468"/><stop offset="1" stop-color="#43a047"/></linearGradient><filter id="g" x="27.475" y="76.664" width="87.455" height="103.18" filterUnits="userSpaceOnUse"><feOffset dy="3" input="SourceAlpha"/><feGaussianBlur stdDeviation="3" result="h"/><feFlood flood-color="#262626" flood-opacity="0.51"/><feComposite operator="in" in2="h"/><feComposite in="SourceGraphic"/></filter><filter id="j" x="96.929" y="76.664" width="87.236" height="103.18" filterUnits="userSpaceOnUse"><feOffset dy="3" input="SourceAlpha"/><feGaussianBlur stdDeviation="3" result="k"/><feFlood flood-color="#262626" flood-opacity="0.51"/><feComposite operator="in" in2="k"/><feComposite in="SourceGraphic"/></filter><linearGradient id="l" x1="0.5" y1="0" x2="0.5" y2="1" xlink:href="#f"/><filter id="m" x="27.475" y="103.201" width="156.691" height="76.643" filterUnits="userSpaceOnUse"><feOffset dy="3" input="SourceAlpha"/><feGaussianBlur stdDeviation="3" result="n"/><feFlood flood-opacity="0.471"/><feComposite operator="in" in2="n"/><feComposite in="SourceGraphic"/></filter></defs><g transform="translate(0 -0.114)"><rect class="a" width="138.691" height="85.18" transform="translate(36.475 82.778)"/><path class="b" d="M75.57,2.457,138.691,58.37l-1.747,3.276-3.276-3.058L4.587,58.37,1.747,61.21,0,58.37,63.339,2.457A8.839,8.839,0,0,1,75.57,2.457Z" transform="translate(36.475 24.407)"/><path class="c" d="M69.892,2.13l59.189,53.948L0,55.859,59.408,2.13C62.684-.71,66.834-.71,69.892,2.13Z" transform="translate(41.061 26.919)"/><g transform="translate(60.5 41.498)"><g class="t" transform="matrix(1, 0, 0, 1, -60.5, -41.38)"><path class="d" d="M1.966,0H88.675a1.926,1.926,0,0,1,1.966,1.747V80.594a1.958,1.958,0,0,1-1.966,1.966H1.966A1.958,1.958,0,0,1,0,80.594V1.747A1.926,1.926,0,0,1,1.966,0Z" transform="translate(60.5 41.38)"/></g><g transform="translate(18.783 8.518)"><path class="e" d="M11.395,15.289a1.3,1.3,0,1,1,0-2.6H41.679a1.3,1.3,0,0,1,0,2.6ZM1.3,11.06a1.3,1.3,0,0,1,0-2.6H51.773a1.3,1.3,0,0,1,0,2.6ZM8.139,6.831a1.3,1.3,0,1,1,0-2.6h36.8a1.3,1.3,0,0,1,0,2.6ZM1.3,2.6A1.3,1.3,0,1,1,1.3,0H51.773a1.3,1.3,0,1,1,0,2.6Z" transform="translate(0 41.716)"/><rect class="e" width="21.623" height="2.621" rx="1.31" transform="translate(15.507 25.117)"/><rect class="e" width="29.049" height="2.621" rx="1.31" transform="translate(11.794 20.749)"/><g class="s" transform="matrix(1, 0, 0, 1, -79.28, -49.9)"><path class="f" d="M227.009,61.387l-7.039-5.4L201.325,80.306l-10.355-7.94-5.4,7.039,13.874,10.622h0L203,92.692Z" transform="translate(-87.62 -54.87) rotate(8)"/></g></g></g><g class="r" transform="matrix(1, 0, 0, 1, 0, 0.11)"><path class="g" d="M69.455,42.153,0,85.18V0Z" transform="translate(36.47 82.66)"/></g><g class="q" transform="matrix(1, 0, 0, 1, 0, 0.11)"><path class="g" d="M0,42.59,69.236,85.18V0Z" transform="translate(105.93 82.66)"/></g><g class="p" transform="matrix(1, 0, 0, 1, 0, 0.11)"><path class="h" d="M75.57,2.293l63.121,56.35H0L63.121,2.293A9.594,9.594,0,0,1,75.57,2.293Z" transform="translate(36.47 109.2)"/></g><g transform="translate(107.895 132.575)"><path class="i" d="M2.621,4.805a.457.457,0,0,0,.193-.071C4.3,3.792,5.242,2.7,5.242,1.581A1.486,1.486,0,0,0,3.772,0,1.291,1.291,0,0,0,2.621.714,1.29,1.29,0,0,0,1.47,0,1.486,1.486,0,0,0,0,1.581C0,2.7.942,3.792,2.431,4.734A.435.435,0,0,0,2.621,4.805Z" transform="matrix(0.883, 0.469, -0.469, 0.883, 41.404, 12.811)"/><path class="i" d="M9.37,23.9A12.309,12.309,0,0,1,.343,9.185L.391,9A12.268,12.268,0,0,1,15.233.356a11.906,11.906,0,0,1,8.812,14.709,11.978,11.978,0,0,1-11.716,9.189A12.58,12.58,0,0,1,9.37,23.9Z" transform="translate(30.245 4.035)"/><path class="i" d="M5.666,14.452A7.415,7.415,0,0,1,.209,5.441a7.452,7.452,0,0,1,9-5.233A7.415,7.415,0,0,1,14.669,9.22a7.367,7.367,0,0,1-7.217,5.44A7.8,7.8,0,0,1,5.666,14.452Z" transform="translate(35.042 8.832)"/><path class="j" d="M14.444,14.738A16.447,16.447,0,0,1,.132,11.9L0,11.807l.662-.9A15.369,15.369,0,0,0,14.19,13.653a16.246,16.246,0,0,1,14.1,3.066l.125.1-.69.876A15.135,15.135,0,0,0,14.444,14.738Zm1.241-5.28L15.52,9.5A16.7,16.7,0,0,1,1.2,6.433l-.125-.1.691-.875A15.567,15.567,0,0,0,15.133,8.443l.145-.032.134-.034c4.954-1.248,9.617-.262,14.149,2.865l.139.1-.639.913C24.741,9.229,20.363,8.28,15.685,9.458ZM16.777,4l-.166.042A16.245,16.245,0,0,1,2.514.974l-.126-.1L3.079,0A15.117,15.117,0,0,0,16.225,2.983l.143-.031.137-.035A16.588,16.588,0,0,1,30.671,5.79l.131.1-.662.9A15.5,15.5,0,0,0,16.777,4Z" transform="translate(0.106 -0.001)"/></g><path class="k" d="M5.985,18.364a.433.433,0,0,1-.361-.244,15.423,15.423,0,0,1-1.986-6.2A6.09,6.09,0,0,1,.182,10.111a.588.588,0,0,1-.17-.542C.076,9.23-.23,8.389,3.83,7.338,5.01-.235,5.837.085,6.113.011A.264.264,0,0,1,6.2,0a.433.433,0,0,1,.361.244C6.9.828,7.62,2.919,8.248,7.338c4.039,1.051,3.86,1.892,3.924,2.243a.626.626,0,0,1-.17.542,6.4,6.4,0,0,1-3.545,1.795c-1.084,6.744-2.1,6.373-2.386,6.458A.264.264,0,0,0,5.985,18.364Z" transform="translate(1.092 72.076)"/><path class="l" d="M4.692,11.62a.351.351,0,0,1-.287-.159A17.875,17.875,0,0,1,3.363,7.222,12.463,12.463,0,0,1,.143,6.394.36.36,0,0,1,0,6.054c.043-.212.1-.467,3.284-1.126C4.214.138,4.575.064,4.788.011,4.809.011,4.83,0,4.862,0a.351.351,0,0,1,.287.159A20.179,20.179,0,0,1,6.286,4.928c3.167.659,3.221.913,3.263,1.126a.32.32,0,0,1-.138.34,12.61,12.61,0,0,1-3.253.828c-.85,4.259-1.169,4.333-1.392,4.376A.271.271,0,0,1,4.692,11.62Z" transform="translate(179.534 84.888)"/><path class="m" d="M3.025,7.5a.209.209,0,0,1-.181-.1,6.114,6.114,0,0,1-.855-2.5,4.2,4.2,0,0,1-1.9-.769.207.207,0,0,1-.085-.223c.032-.138-.08-.562,1.982-1C2.584-.18,2.961.032,3.1,0h.043a.209.209,0,0,1,.181.1A7.683,7.683,0,0,1,4.2,2.911c2.041.425,1.937.849,1.958.987a.207.207,0,0,1-.085.223A4.652,4.652,0,0,1,4.2,4.754C3.65,7.5,3.216,7.456,3.068,7.488,3.057,7.488,3.036,7.5,3.025,7.5Z" transform="translate(73.191 10.239)"/><rect class="m" width="3.743" height="9.32" transform="translate(142.622 27.109) rotate(-45)"/><rect class="k" width="3.148" height="7.821" transform="translate(206.253 33.326) rotate(137.939)"/><rect class="k" width="3.147" height="7.822" transform="translate(62.607 134.104) rotate(57.16)"/><rect class="k" width="3.148" height="7.819" transform="translate(189.126 134.278) rotate(30.001)"/><rect class="l" width="3.743" height="9.32" transform="translate(16.933 35.466) rotate(135)"/><rect class="l" width="3.743" height="9.321" transform="translate(159.91 56.955) rotate(57.16)"/><rect class="m" width="3.743" height="9.32" transform="translate(0.579 180.872) rotate(-90)"/><rect class="l" width="3.743" height="9.321" transform="matrix(0.978, 0.211, -0.211, 0.978, 33.908, 189.752)"/><rect class="l" width="3.743" height="9.321" transform="matrix(0.837, 0.547, -0.547, 0.837, 192.584, 167.979)"/><rect class="m" width="3.743" height="9.32" transform="matrix(-0.635, -0.772, 0.772, -0.635, 204.382, 82.067)"/><rect class="n" width="2.935" height="7.29" transform="translate(42.886 43.014) rotate(47.939)"/><rect class="o" width="2.934" height="7.291" transform="matrix(0.37, 0.929, -0.929, 0.37, 6.775, 137.484)"/><rect class="n" width="2.935" height="7.29" transform="translate(108.245 0.114) rotate(47.939)"/><rect class="n" width="2.935" height="7.291" transform="translate(168.491 189.321) rotate(-77.216)"/></g></svg>