<svg xmlns="http://www.w3.org/2000/svg" width="87.784" height="87.728" viewBox="0 0 87.784 87.728"><defs><style>.a{fill:rgba(254,102,0,0.6);}</style></defs><g transform="matrix(0.799, 0.602, -0.602, 0.799, 35.293, -17.447)"><path class="a" d="M19.471,15.032a2.471,2.471,0,0,0,2.471-2.471V2.971a2.471,2.471,0,0,0-4.943,0v9.589A2.471,2.471,0,0,0,19.471,15.032Z" transform="translate(24.279 0)"/><path class="a" d="M15.032,19.471A2.471,2.471,0,0,0,12.561,17H2.971a2.471,2.471,0,0,0,0,4.943h9.589A2.471,2.471,0,0,0,15.032,19.471Z" transform="translate(0 24.279)"/><path class="a" d="M19.471,29.62A2.471,2.471,0,0,0,17,32.091v9.589a2.471,2.471,0,0,0,4.943,0V32.091A2.471,2.471,0,0,0,19.471,29.62Z" transform="translate(24.279 42.848)"/><path class="a" d="M41.681,17H32.091a2.471,2.471,0,0,0,0,4.943h9.589a2.471,2.471,0,0,0,0-4.943Z" transform="translate(42.848 24.279)"/><path class="a" d="M9.446,6.058a2.471,2.471,0,0,0-3.485,0,2.471,2.471,0,0,0,.1,3.386l6.772,6.9a2.482,2.482,0,1,0,3.509-3.509Z" transform="translate(7.119 7.121)"/><path class="a" d="M12.837,26.584l-6.772,6.9A2.464,2.464,0,1,0,9.55,36.964l6.8-6.772a2.482,2.482,0,1,0-3.509-3.509Z" transform="translate(7.113 37.457)"/><path class="a" d="M30.152,26.643a2.482,2.482,0,1,0-3.509,3.509l6.9,6.772a2.464,2.464,0,1,0,3.485-3.485Z" transform="translate(37.398 37.398)"/><path class="a" d="M28.4,17.115a2.471,2.471,0,0,0,1.755-.717l6.772-6.9a2.464,2.464,0,0,0-3.485-3.485l-6.8,6.871A2.471,2.471,0,0,0,28.4,17.115Z" transform="translate(37.395 7.062)"/><path class="a" d="M34.77,26.138H20.534l8.551-11.393a2.471,2.471,0,1,0-3.954-2.966L13.614,27.126a2.471,2.471,0,0,0,1.977,3.954H29.827L21.276,42.474A2.471,2.471,0,0,0,25.23,45.44L36.747,30.092a2.471,2.471,0,0,0-1.977-3.954Z" transform="translate(18.569 15.141)"/></g></svg>