<svg xmlns="http://www.w3.org/2000/svg" width="124.431" height="128.406" viewBox="0 0 124.431 128.406"><defs><style>.a{fill:#e5ffe6;}</style></defs><g transform="translate(-7.498 -6.536)"><g transform="translate(7.498 6.536)"><path class="a" d="M21.962,6.536a14.459,14.459,0,0,0-1.809,28.805V46.314h3.618V35.341A14.459,14.459,0,0,0,21.962,6.536Zm1.809,25.15V21H20.153V31.686a10.847,10.847,0,1,1,3.618,0Z" transform="translate(-7.498 -6.536)"/><path class="a" d="M45.771,18.759V7.786H42.153V18.759a14.464,14.464,0,1,0,3.618,0ZM43.962,43.945a10.842,10.842,0,0,1-1.809-21.533V33.1h3.618V22.412a10.842,10.842,0,0,1-1.809,21.533Z" transform="translate(2.336 -5.977)"/><path class="a" d="M65.962,6.536a14.459,14.459,0,0,0-1.809,28.805V46.314h3.618V35.341A14.459,14.459,0,0,0,65.962,6.536Zm1.809,25.15V21H64.153V31.686a10.847,10.847,0,1,1,3.618,0Z" transform="translate(12.17 -6.536)"/><path class="a" d="M87.962,47.563a14.459,14.459,0,0,0,1.809-28.805V7.786H86.153V18.759a14.458,14.458,0,0,0,1.809,28.8ZM86.153,22.414V33.1h3.618V22.414a10.847,10.847,0,1,1-3.618,0Z" transform="translate(22.004 -5.977)"/><path class="a" d="M21.962,66.536a14.458,14.458,0,0,0-1.809,28.8v10.973h3.618V95.34a14.458,14.458,0,0,0-1.809-28.8Zm1.809,25.149V81H20.153V91.685a10.847,10.847,0,1,1,3.618,0Z" transform="translate(-7.498 20.284)"/><path class="a" d="M45.771,78.759V67.786H42.153V78.759a14.464,14.464,0,1,0,3.618,0Zm-1.809,25.187a10.841,10.841,0,0,1-1.809-21.531V93.1h3.618V82.414a10.841,10.841,0,0,1-1.809,21.531Z" transform="translate(2.336 20.843)"/><path class="a" d="M65.962,66.536a14.458,14.458,0,0,0-1.809,28.8v10.973h3.618V95.34a14.458,14.458,0,0,0-1.809-28.8Zm1.809,25.149V81H64.153V91.685a10.847,10.847,0,1,1,3.618,0Z" transform="translate(12.17 20.284)"/><path class="a" d="M89.771,78.759V67.786H86.153V78.759a14.464,14.464,0,1,0,3.618,0Zm-1.809,25.187a10.841,10.841,0,0,1-1.809-21.531V93.1h3.618V82.414a10.841,10.841,0,0,1-1.809,21.531Z" transform="translate(22.004 20.843)"/><path class="a" d="M21.962,36.536a14.459,14.459,0,0,0-1.809,28.805V76.314h3.618V65.341a14.459,14.459,0,0,0-1.809-28.805Zm1.809,25.149V51H20.153V61.685a10.847,10.847,0,1,1,3.618,0Z" transform="translate(-7.498 6.874)"/><path class="a" d="M45.771,48.759V37.786H42.153V48.759a14.464,14.464,0,1,0,3.618,0ZM43.962,73.945a10.841,10.841,0,0,1-1.809-21.531V63.1h3.618V52.414a10.841,10.841,0,0,1-1.809,21.531Z" transform="translate(2.336 7.433)"/><path class="a" d="M65.962,36.536a14.459,14.459,0,0,0-1.809,28.805V76.314h3.618V65.341a14.459,14.459,0,0,0-1.809-28.805Zm1.809,25.149V51H64.153V61.685a10.847,10.847,0,1,1,3.618,0Z" transform="translate(12.17 6.874)"/><path class="a" d="M89.771,48.759V37.786H86.153V48.759a14.464,14.464,0,1,0,3.618,0ZM87.962,73.945a10.841,10.841,0,0,1-1.809-21.531V63.1h3.618V52.414a10.841,10.841,0,0,1-1.809,21.531Z" transform="translate(22.004 7.433)"/></g></g></svg>