<svg xmlns="http://www.w3.org/2000/svg" xmlns:xlink="http://www.w3.org/1999/xlink" width="19.06" height="19.503" viewBox="0 0 19.06 19.503"><defs><style>.a{clip-path:url(#a);}.b{fill:#fbbc05;}.c{fill:#ea4335;}.d{fill:#34a853;}.e{fill:#4285f4;}</style><clipPath id="a"><path d="M20.838,9.979H11.752v3.768h5.23c-.488,2.394-2.527,3.768-5.23,3.768a5.762,5.762,0,0,1,0-11.525,5.637,5.637,0,0,1,3.59,1.285l2.837-2.837A9.745,9.745,0,1,0,11.752,21.5c4.876,0,9.308-3.546,9.308-9.752A8.09,8.09,0,0,0,20.838,9.979Z" transform="translate(-2 -2)"/></clipPath></defs><g class="a"><path class="b" d="M0,22.525V11l7.535,5.762Z" transform="translate(-0.887 -7.011)"/></g><g class="a"><path class="c" d="M0,4.876l7.535,5.762,3.1-2.7L21.276,6.206V0H0Z" transform="translate(-0.887 -0.887)"/></g><g class="a"><path class="d" d="M0,16.4,13.3,6.206l3.5.443L21.276,0V21.276H0Z" transform="translate(-0.887 -0.887)"/></g><g class="a"><path class="e" d="M28.514,27.4,14.773,16.762,13,15.433,28.514,11Z" transform="translate(-8.124 -7.011)"/></g></svg>