<svg xmlns="http://www.w3.org/2000/svg" xmlns:xlink="http://www.w3.org/1999/xlink" width="191" height="287.816" viewBox="0 0 191 287.816"><defs><style>.a,.c{fill:#fff;}.b{fill:#2a2e43;}.b,.c,.d,.e{fill-rule:evenodd;}.d{fill:#e5ffe6;}.e{fill:#43a047;}.f{clip-path:url(#a);}.g{fill:#f5f5f5;}.h{fill:#aeaeae;}.i{fill:#e4e4e4;}.j{fill:#707070;}.k{filter:url(#b);}</style><clipPath id="a"><rect class="a" width="191" height="218" rx="10" transform="translate(-0.222)"/></clipPath><filter id="b" x="2" y="185.455" width="187" height="59" filterUnits="userSpaceOnUse"><feOffset dy="3" input="SourceAlpha"/><feGaussianBlur stdDeviation="3" result="c"/><feFlood flood-opacity="0.161"/><feComposite operator="in" in2="c"/><feComposite in="SourceGraphic"/></filter></defs><g transform="translate(0.222)"><path class="b" d="M1299.162,597.6h119.784a20.025,20.025,0,0,1,19.963,19.962V865.454a20.025,20.025,0,0,1-19.963,19.962H1299.162a20.025,20.025,0,0,1-19.962-19.962V617.562a20.012,20.012,0,0,1,19.962-19.962Z" transform="translate(-1263.199 -597.6)"/><path class="c" d="M1384.344,743a10.5,10.5,0,0,0-10.444,10.443v226.7a10.493,10.493,0,0,0,10.444,10.443h119.784a10.493,10.493,0,0,0,10.444-10.443v-226.7A10.493,10.493,0,0,0,1504.128,743Z" transform="translate(-1348.382 -728.385)"/><path class="d" d="M2007.308,3255.7a7.408,7.408,0,1,1-7.408,7.408,7.408,7.408,0,0,1,7.408-7.408Z" transform="translate(-1911.459 -2988.519)"/><path class="e" d="M2559.124,818.394a.523.523,0,0,1,0-1.045h11.408a.523.523,0,1,1,0,1.045Zm0,3.739a.523.523,0,0,1,0-1.046h11.408a.523.523,0,0,1,0,1.046Zm0-7.488a.523.523,0,0,1,0-1.045h11.408a.523.523,0,0,1,0,1.045Z" transform="translate(-2414.002 -791.888)"/><g transform="translate(0 26.455)"><g class="f"><rect class="g" width="327.191" height="217.547" transform="translate(-28.854 0.236)"/></g><g transform="translate(11 165)"><g class="k" transform="matrix(1, 0, 0, 1, -11.22, -191.45)"><rect class="a" width="169" height="41" rx="10" transform="translate(11 191.45)"/></g><rect class="h" width="138.954" height="8.296" rx="4.148" transform="translate(17.575 15.669)"/></g><g transform="translate(11.119 18)"><rect class="i" width="169.314" height="130.869" rx="5" transform="translate(0 0)"/></g></g><g transform="translate(60.8 87.455)"><path class="j" d="M18.659,35.609A3.487,3.487,0,1,1,15.172,39.1,3.431,3.431,0,0,1,18.659,35.609ZM70.438,54.638H54.215A1.359,1.359,0,0,0,52.85,56v2.2a1.359,1.359,0,0,0,1.365,1.365H70.363A1.359,1.359,0,0,0,71.727,58.2V56A1.253,1.253,0,0,0,70.438,54.638Zm-18.5,6.671a1.359,1.359,0,0,0-1.365,1.365v2.2a1.359,1.359,0,0,0,1.365,1.365H68.088a1.359,1.359,0,0,0,1.365-1.365v-2.2a1.359,1.359,0,0,0-1.365-1.365ZM72.485,41.3H56.338a1.359,1.359,0,0,0-1.365,1.365v2.2a1.359,1.359,0,0,0,1.365,1.365H72.485a1.359,1.359,0,0,0,1.365-1.365v-2.2A1.359,1.359,0,0,0,72.485,41.3Zm-4.4,6.671H51.94a1.359,1.359,0,0,0-1.365,1.365v2.2a1.359,1.359,0,0,0,1.365,1.365H68.088a1.359,1.359,0,0,0,1.365-1.365v-2.2A1.359,1.359,0,0,0,68.088,47.967ZM53.76,35.988v2.2a1.359,1.359,0,0,0,1.365,1.365H71.272a1.359,1.359,0,0,0,1.365-1.365v-2.2a1.359,1.359,0,0,0-1.365-1.365H55.049A1.345,1.345,0,0,0,53.76,35.988ZM9.562,59.566H50.2a1.166,1.166,0,0,0,1.137-1.137V55.7A1.166,1.166,0,0,0,50.2,54.562H15.475a5.615,5.615,0,0,0-.152-2.729,6.108,6.108,0,0,0-3.032-3.563,6.066,6.066,0,0,0-3.563-.531V30.151a5.681,5.681,0,0,0,4.321-.986,6.171,6.171,0,0,0,2.123-2.5,6.429,6.429,0,0,0,.379-3.336H58.309a5.842,5.842,0,0,0,0,2.805,5.927,5.927,0,0,0,4.4,4.321,5.55,5.55,0,0,0,2.729-.076v1.365a1.166,1.166,0,0,0,1.137,1.137h2.653a1.166,1.166,0,0,0,1.137-1.137V24.162A5.759,5.759,0,0,0,64.6,18.4H9.562A5.759,5.759,0,0,0,3.8,24.162V53.728A5.776,5.776,0,0,0,9.562,59.566Zm27.444-33.13A12.585,12.585,0,1,1,24.421,39.021,12.554,12.554,0,0,1,37.006,26.436Zm0,5.307a7.278,7.278,0,1,0,7.278,7.278A7.28,7.28,0,0,0,37.006,31.743Z" transform="translate(-3.8 -18.4)"/></g></g></svg>