<svg xmlns="http://www.w3.org/2000/svg" width="157.735" height="133.177" viewBox="0 0 157.735 133.177"><defs><style>.a{fill:#43a047;}</style></defs><g transform="translate(74.212 -17.23) rotate(43)"><g transform="translate(-0.007 3.746)"><g transform="translate(-0.193 100.989)"><path class="a" d="M-.007,3.857.031.137Q1.817.118,3.643-.007l.175,3.712Q1.883,3.837-.007,3.857Z" transform="translate(0 0)"/></g><g transform="translate(10.518 10.346)"><path class="a" d="M.375,93.483l-.547-3.669c2.241-.379,4.537-.873,6.821-1.473l.875,3.6C5.13,92.566,2.726,93.086.375,93.483ZM14.515,89.8l-1.167-3.509c2.18-.763,4.379-1.628,6.538-2.57l1.43,3.405C19.072,88.1,16.784,89,14.515,89.8Zm13.393-5.825L26.24,80.683c2.049-1.068,4.115-2.234,6.145-3.466l1.884,3.17C32.17,81.659,30.032,82.866,27.908,83.972ZM40.39,76.4,38.3,73.363c1.912-1.329,3.823-2.744,5.682-4.209l2.268,2.9C44.337,73.57,42.364,75.032,40.39,76.4Zm11.469-9.021-2.437-2.763c1.756-1.553,3.5-3.18,5.174-4.836l2.591,2.62C55.46,64.106,53.666,65.782,51.859,67.382ZM62.232,57.143,59.5,54.672c1.566-1.72,3.125-3.524,4.634-5.362L67,51.633C65.446,53.522,63.843,55.374,62.232,57.143ZM71.469,45.89l-2.978-2.171c1.39-1.88,2.761-3.83,4.073-5.8l3.089,2.019C74.3,41.958,72.9,43.961,71.469,45.89ZM79.541,33.8l-3.186-1.866c1.211-2.012,2.391-4.083,3.512-6.156l3.271,1.714C81.989,29.616,80.781,31.737,79.541,33.8Zm6.906-12.762L83.1,19.473c1.011-2.086,2.006-4.25,2.952-6.438l3.416,1.417C88.5,16.689,87.484,18.905,86.447,21.038ZM92.208,7.753,88.733,6.481c.839-2.179,1.65-4.418,2.413-6.656L94.669.955C93.893,3.241,93.064,5.528,92.208,7.753Z"/></g><g transform="translate(103.833 -0.199)"><path class="a" d="M3.563,4.558l-3.57-.993Q.52,1.8,1.014,0L4.607.917Q4.1,2.752,3.563,4.558Z" transform="translate(0 0)"/></g></g><g transform="translate(90.705 -0.174)"><path class="a" d="M19.071,20.615,14.518,7.3,2.667,16.472-.025,12.967l16.791-13,6.541,19.126Z" transform="translate(0)"/></g></g></svg>