<svg xmlns="http://www.w3.org/2000/svg" xmlns:xlink="http://www.w3.org/1999/xlink" width="220" height="287.816" viewBox="0 0 220 287.816"><defs><style>.a,.c,.k{fill:#fff;}.b{fill:#2a2e43;}.b,.c,.d,.e{fill-rule:evenodd;}.d{fill:#e5ffe6;}.e,.m{fill:#43a047;}.f{clip-path:url(#a);}.g{fill:#f5f5f5;}.h{fill:#aeaeae;}.i{fill:#707070;}.j,.n{fill:#fafafa;}.j,.k{stroke:#707070;}.l{fill:#e4e4e4;}.o{stroke:none;}.p{fill:none;}.q{filter:url(#d);}.r{filter:url(#b);}</style><clipPath id="a"><rect class="a" width="157" height="179" rx="10" transform="translate(-0.416)"/></clipPath><filter id="b" x="31" y="155.455" width="157" height="52" filterUnits="userSpaceOnUse"><feOffset dy="3" input="SourceAlpha"/><feGaussianBlur stdDeviation="3" result="c"/><feFlood flood-opacity="0.161"/><feComposite operator="in" in2="c"/><feComposite in="SourceGraphic"/></filter><filter id="d" x="0" y="225.455" width="220" height="52" filterUnits="userSpaceOnUse"><feOffset dy="3" input="SourceAlpha"/><feGaussianBlur stdDeviation="3" result="e"/><feFlood flood-opacity="0.161"/><feComposite operator="in" in2="e"/><feComposite in="SourceGraphic"/></filter></defs><g transform="translate(9.416)"><path class="b" d="M1299.162,597.6h119.784a20.025,20.025,0,0,1,19.963,19.962V865.454a20.025,20.025,0,0,1-19.963,19.962H1299.162a20.025,20.025,0,0,1-19.962-19.962V617.562a20.012,20.012,0,0,1,19.962-19.962Z" transform="translate(-1258.153 -597.6)"/><path class="c" d="M1384.344,743a10.5,10.5,0,0,0-10.444,10.443v226.7a10.493,10.493,0,0,0,10.444,10.443h119.784a10.493,10.493,0,0,0,10.444-10.443v-226.7A10.493,10.493,0,0,0,1504.128,743Z" transform="translate(-1343.336 -728.385)"/><path class="d" d="M2007.308,3255.7a7.408,7.408,0,1,1-7.408,7.408,7.408,7.408,0,0,1,7.408-7.408Z" transform="translate(-1906.413 -2988.519)"/><path class="e" d="M2559.124,818.394a.523.523,0,0,1,0-1.045h11.408a.523.523,0,1,1,0,1.045Zm0,3.739a.523.523,0,0,1,0-1.046h11.408a.523.523,0,0,1,0,1.046Zm0-7.488a.523.523,0,0,1,0-1.045h11.408a.523.523,0,0,1,0,1.045Z" transform="translate(-2408.956 -791.888)"/><g transform="translate(0 26.455)"><g class="f" transform="translate(22)"><rect class="g" width="268.948" height="178.821" transform="translate(-23.672)"/></g><g transform="translate(31 135)"><g class="r" transform="matrix(1, 0, 0, 1, -40.42, -161.45)"><rect class="a" width="139" height="34" rx="10" transform="translate(40 161.45)"/></g><rect class="h" width="114.219" height="6.819" rx="3.41" transform="translate(14.534 13.314)"/></g><g transform="translate(106.195 9.994)"><g transform="translate(0 0)"><rect class="i" width="64.401" height="20.883" rx="10.442"/><g class="j" transform="translate(10.403 6.435)"><circle class="o" cx="4.226" cy="4.226" r="4.226"/><circle class="p" cx="4.226" cy="4.226" r="3.726"/></g><g class="k" transform="translate(17.389 7.006)"><rect class="o" width="39" height="7" rx="3.5"/><rect class="p" x="0.5" y="0.5" width="38" height="6" rx="3"/></g></g></g><g transform="translate(31.186 45.794)"><rect class="l" width="139.174" height="76.381" rx="5" transform="translate(0 0)"/></g><g transform="translate(0 205)"><g class="q" transform="matrix(1, 0, 0, 1, -9.42, -231.45)"><rect class="m" width="202" height="34" rx="10" transform="translate(9 231.45)"/></g><path class="n" d="M1.52-14.1H7.68a5.088,5.088,0,0,1,3.52,1.13A4.038,4.038,0,0,1,12.46-9.8,4.07,4.07,0,0,1,11.2-6.62,5.059,5.059,0,0,1,7.68-5.48H4.1V0H1.52ZM7.36-7.46q2.66,0,2.66-2.32a2.189,2.189,0,0,0-.66-1.75,3,3,0,0,0-2-.57H4.1v4.64ZM26,0,24.58-3.3H17.72L16.3,0H13.7l6.38-14.1h2.1L28.56,0ZM18.56-5.3s4.515,1.5,5.16,0-2.58-6-2.58-6Zm23.58-8.8L36.42-6.5V0s-1.935,1.625-2.58,0,0-6.5,0-6.5l-5.7-7.6h2.9l4.08,5.54,4.1-5.54Z" transform="translate(99.046 25)"/><g transform="translate(61 6.9)"><path class="a" d="M15.706-14.1h3.621V7h-2.9L5.111-7.725V7H1.52V-14.1H4.393L15.706.6Z" transform="translate(2.046 14.1)"/><rect class="a" width="25" height="4" transform="translate(-0.416 6.1)"/><rect class="a" width="25" height="4" transform="translate(-0.416 12.1)"/></g></g></g></g></svg>