<svg xmlns="http://www.w3.org/2000/svg" xmlns:xlink="http://www.w3.org/1999/xlink" width="202" height="287.816" viewBox="0 0 202 287.816"><defs><style>.a,.c,.k{fill:#fff;}.b{fill:#2a2e43;}.b,.c,.d,.e{fill-rule:evenodd;}.d{fill:#e5ffe6;}.e{fill:#43a047;}.f{clip-path:url(#a);}.g{fill:#f5f5f5;}.h{fill:#aeaeae;}.i{fill:#707070;}.j{fill:#fafafa;}.j,.k{stroke:#707070;}.l{fill:#e4e4e4;}.m{stroke:none;}.n{fill:none;}.o{filter:url(#k);}.p{filter:url(#h);}.q{filter:url(#e);}.r{filter:url(#b);}</style><clipPath id="a"><rect class="a" width="92" height="105" rx="10" transform="translate(0.432)"/></clipPath><filter id="b" x="0" y="111.455" width="100" height="38" filterUnits="userSpaceOnUse"><feOffset dy="3" input="SourceAlpha"/><feGaussianBlur stdDeviation="3" result="c"/><feFlood flood-opacity="0.161"/><feComposite operator="in" in2="c"/><feComposite in="SourceGraphic"/></filter><filter id="e" x="102" y="111.455" width="100" height="38" filterUnits="userSpaceOnUse"><feOffset dy="3" input="SourceAlpha"/><feGaussianBlur stdDeviation="3" result="f"/><feFlood flood-opacity="0.161"/><feComposite operator="in" in2="f"/><feComposite in="SourceGraphic"/></filter><filter id="h" x="0" y="226.455" width="100" height="38" filterUnits="userSpaceOnUse"><feOffset dy="3" input="SourceAlpha"/><feGaussianBlur stdDeviation="3" result="i"/><feFlood flood-opacity="0.161"/><feComposite operator="in" in2="i"/><feComposite in="SourceGraphic"/></filter><filter id="k" x="102" y="226.455" width="100" height="38" filterUnits="userSpaceOnUse"><feOffset dy="3" input="SourceAlpha"/><feGaussianBlur stdDeviation="3" result="l"/><feFlood flood-opacity="0.161"/><feComposite operator="in" in2="l"/><feComposite in="SourceGraphic"/></filter></defs><g transform="translate(3.568)"><path class="b" d="M1299.162,597.6h119.784a20.025,20.025,0,0,1,19.963,19.962V865.454a20.025,20.025,0,0,1-19.963,19.962H1299.162a20.025,20.025,0,0,1-19.962-19.962V617.562a20.012,20.012,0,0,1,19.962-19.962Z" transform="translate(-1262.296 -597.6)"/><path class="c" d="M1384.344,743a10.5,10.5,0,0,0-10.444,10.443v226.7a10.493,10.493,0,0,0,10.444,10.443h119.784a10.493,10.493,0,0,0,10.444-10.443v-226.7A10.493,10.493,0,0,0,1504.128,743Z" transform="translate(-1347.478 -728.385)"/><path class="d" d="M2007.308,3255.7a7.408,7.408,0,1,1-7.408,7.408,7.408,7.408,0,0,1,7.408-7.408Z" transform="translate(-1910.555 -2988.519)"/><path class="e" d="M2559.124,818.394a.523.523,0,0,1,0-1.045h11.408a.523.523,0,1,1,0,1.045Zm0,3.739a.523.523,0,0,1,0-1.046h11.408a.523.523,0,0,1,0,1.046Zm0-7.488a.523.523,0,0,1,0-1.045h11.408a.523.523,0,0,1,0,1.045Z" transform="translate(-2413.098 -791.888)"/><g transform="translate(0 38.455)"><g class="f"><rect class="g" width="157.762" height="104.895" transform="translate(-14.009)"/></g><g transform="translate(5 79)"><g class="r" transform="matrix(1, 0, 0, 1, -8.57, -117.45)"><rect class="a" width="82" height="20" rx="10" transform="translate(9 117.45)"/></g><rect class="h" width="67" height="4" rx="2" transform="translate(8.681 8)"/></g><g transform="translate(49.265 5.862)"><rect class="i" width="37.777" height="12.25" rx="6.125"/><g class="j" transform="translate(6.102 3.775)"><circle class="m" cx="2.479" cy="2.479" r="2.479"/><circle class="n" cx="2.479" cy="2.479" r="1.979"/></g><g class="k" transform="translate(11.168 4.138)"><rect class="m" width="23" height="4" rx="2"/><rect class="n" x="0.5" y="0.5" width="22" height="3" rx="1.5"/></g></g><g transform="translate(5.265 26.862)"><rect class="l" width="81.639" height="44.804" rx="5"/></g></g><g transform="translate(102 38.455)"><g class="f"><rect class="g" width="157.762" height="104.895" transform="translate(-14.009)"/></g><g transform="translate(5 79)"><g class="q" transform="matrix(1, 0, 0, 1, -110.57, -117.45)"><rect class="a" width="82" height="20" rx="10" transform="translate(111 117.45)"/></g><rect class="h" width="67" height="4" rx="2" transform="translate(8.681 8)"/></g><g transform="translate(49.265 5.862)"><rect class="i" width="37.777" height="12.25" rx="6.125"/><g class="j" transform="translate(6.102 3.775)"><circle class="m" cx="2.479" cy="2.479" r="2.479"/><circle class="n" cx="2.479" cy="2.479" r="1.979"/></g><g class="k" transform="translate(11.168 4.138)"><rect class="m" width="23" height="4" rx="2"/><rect class="n" x="0.5" y="0.5" width="22" height="3" rx="1.5"/></g></g><g transform="translate(5.265 26.862)"><rect class="l" width="81.639" height="44.804" rx="5"/></g></g><g transform="translate(0 153.455)"><g class="f"><rect class="g" width="157.762" height="104.895" transform="translate(-14.009)"/></g><g transform="translate(5 79)"><g class="p" transform="matrix(1, 0, 0, 1, -8.57, -232.45)"><rect class="a" width="82" height="20" rx="10" transform="translate(9 232.45)"/></g><rect class="h" width="67" height="4" rx="2" transform="translate(8.681 8)"/></g><g transform="translate(49.265 5.862)"><rect class="i" width="37.777" height="12.25" rx="6.125"/><g class="j" transform="translate(6.102 3.775)"><circle class="m" cx="2.479" cy="2.479" r="2.479"/><circle class="n" cx="2.479" cy="2.479" r="1.979"/></g><g class="k" transform="translate(11.168 4.138)"><rect class="m" width="23" height="4" rx="2"/><rect class="n" x="0.5" y="0.5" width="22" height="3" rx="1.5"/></g></g><g transform="translate(5.265 26.862)"><rect class="l" width="81.639" height="44.804" rx="5"/></g></g><g transform="translate(102 153.455)"><g class="f"><rect class="g" width="157.762" height="104.895" transform="translate(-14.009)"/></g><g transform="translate(5 79)"><g class="o" transform="matrix(1, 0, 0, 1, -110.57, -232.45)"><rect class="a" width="82" height="20" rx="10" transform="translate(111 232.45)"/></g><rect class="h" width="67" height="4" rx="2" transform="translate(8.681 8)"/></g><g transform="translate(49.265 5.862)"><rect class="i" width="37.777" height="12.25" rx="6.125"/><g class="j" transform="translate(6.102 3.775)"><circle class="m" cx="2.479" cy="2.479" r="2.479"/><circle class="n" cx="2.479" cy="2.479" r="1.979"/></g><g class="k" transform="translate(11.168 4.138)"><rect class="m" width="23" height="4" rx="2"/><rect class="n" x="0.5" y="0.5" width="22" height="3" rx="1.5"/></g></g><g transform="translate(5.265 26.862)"><rect class="l" width="81.639" height="44.804" rx="5"/></g></g></g></svg>