<svg xmlns="http://www.w3.org/2000/svg" xmlns:xlink="http://www.w3.org/1999/xlink" width="159.709" height="287.816" viewBox="0 0 159.709 287.816"><defs><style>.a{fill:#707070;}.b{fill:#2a2e43;}.b,.c,.d,.e{fill-rule:evenodd;}.c,.h{fill:#43a047;}.d{fill:#e5ffe6;}.e,.f{fill:#fff;}.g{clip-path:url(#a);}.i{fill:#fafafa;}.j{fill:#aeaeae;}</style><clipPath id="a"><path class="a" d="M15.943,7.905H9.217v2.789h3.871a3.611,3.611,0,0,1-3.871,2.789,4.265,4.265,0,0,1,0-8.53,4.172,4.172,0,0,1,2.657.951l2.1-2.1A7.213,7.213,0,1,0,9.217,16.435a6.809,6.809,0,0,0,6.889-7.217A5.988,5.988,0,0,0,15.943,7.905Z" transform="translate(-2 -2)"/></clipPath></defs><path class="b" d="M1299.162,597.6h119.784a20.025,20.025,0,0,1,19.963,19.962V865.454a20.025,20.025,0,0,1-19.963,19.962H1299.162a20.025,20.025,0,0,1-19.962-19.962V617.562a20.012,20.012,0,0,1,19.962-19.962Z" transform="translate(-1279.199 -597.6)"/><path class="c" d="M1384.344,743a10.5,10.5,0,0,0-10.444,10.443v226.7a10.493,10.493,0,0,0,10.444,10.443h119.784a10.493,10.493,0,0,0,10.444-10.443v-226.7A10.493,10.493,0,0,0,1504.128,743Z" transform="translate(-1364.382 -728.385)"/><path class="d" d="M2007.308,3255.7a7.408,7.408,0,1,1-7.408,7.408,7.408,7.408,0,0,1,7.408-7.408Z" transform="translate(-1927.459 -2988.519)"/><path class="e" d="M2559.124,818.394a.523.523,0,0,1,0-1.045h11.408a.523.523,0,1,1,0,1.045Zm0,3.739a.523.523,0,0,1,0-1.046h11.408a.523.523,0,0,1,0,1.046Zm0-7.488a.523.523,0,0,1,0-1.045h11.408a.523.523,0,0,1,0,1.045Z" transform="translate(-2430.002 -791.888)"/><g transform="translate(17.778 66.455)"><g transform="translate(0 0)"><rect class="f" width="125" height="155" transform="translate(0 0)"/><g transform="translate(13.325 126.203)"><g class="g"><path class="a" d="M0,19.53V11l5.577,4.265Z" transform="translate(-0.656 -8.047)"/></g><g class="g"><path class="a" d="M0,3.609,5.577,7.874l2.3-2,7.874-1.279V0H0Z" transform="translate(-0.656 -0.656)"/></g><g class="g"><path class="a" d="M0,12.138,9.842,4.593l2.592.328L15.747,0V15.747H0Z" transform="translate(-0.656 -0.656)"/></g><g class="g"><path class="a" d="M24.482,23.138l-10.17-7.874L13,14.281,24.482,11Z" transform="translate(-9.391 -8.047)"/></g><rect class="a" width="69.954" height="12.848" rx="5" transform="translate(27.204 1.038)"/></g><g transform="translate(13 104)"><rect class="h" width="98" height="14" rx="5" transform="translate(0 0)"/><rect class="i" width="66" height="3" rx="1.5" transform="translate(16 5)"/></g><rect class="j" width="67" height="4" rx="2" transform="translate(13 22)"/><rect class="j" width="34" height="3" rx="1.5" transform="translate(13 16)"/><rect class="h" width="98" height="2" rx="1" transform="translate(13 55)"/><rect class="h" width="98" height="1" rx="0.5" transform="translate(13 86)"/><rect class="j" width="34" height="2" rx="1" transform="translate(13 43)"/><rect class="j" width="34" height="2" rx="1" transform="translate(13 75)"/></g></g><g transform="translate(39.878 37.455)"><path class="f" d="M234.56,33.643l.678-.18V29.68h9.212v1.054l.75-.286V29H234.56Z" transform="translate(-232.728 -28.581)"/><path class="f" d="M234.56,198.849l.678-.206v1.071h9.176v-3.57L245.2,196v4.552H234.56Z" transform="translate(-232.728 -189.564)"/><path class="f" d="M233.32,22.441s15.924-5.641,20.03-5.034C253.35,17.407,233.677,22.656,233.32,22.441Z" transform="translate(-231.533 -17.361)"/><path class="f" d="M183.73,47.611s22.03-7.462,26.35-6.927C210.08,40.684,183.124,48.075,183.73,47.611Z" transform="translate(-183.72 -39.818)"/><path class="f" d="M233.32,134.711s16.459-6,20.03-5.177C253.35,129.534,234.855,134.461,233.32,134.711Z" transform="translate(-231.533 -125.418)"/><g transform="translate(29.428 2.617)"><path class="f" d="M28.47,376.537a1.991,1.991,0,0,1,.877.729,2.19,2.19,0,0,1,0,2.235,1.955,1.955,0,0,1-.874.729,3.339,3.339,0,0,1-1.341.249H25.964v1.6H24.62v-5.8h2.512A3.221,3.221,0,0,1,28.47,376.537Zm-.493,2.588a.907.907,0,0,0,.315-.741.917.917,0,0,0-.315-.75,1.409,1.409,0,0,0-.916-.261h-1.1v2.013h1.094A1.407,1.407,0,0,0,27.977,379.125Z" transform="translate(-24.62 -376.179)"/><path class="f" d="M122.287,382.078l-1.119-1.615h-1.234v1.615H118.59v-5.8h2.51a3.224,3.224,0,0,1,1.338.257,1.985,1.985,0,0,1,.874.729,2.011,2.011,0,0,1,.305,1.119,1.888,1.888,0,0,1-1.193,1.833l1.3,1.864Zm-.34-4.444a1.412,1.412,0,0,0-.92-.261h-1.093v2.021h1.093a1.4,1.4,0,0,0,.92-.265,1.045,1.045,0,0,0,0-1.495Z" transform="translate(-112.849 -376.179)"/><path class="f" d="M206.451,380.836H203.76l-.514,1.242H201.87l2.585-5.8h1.326l2.593,5.8h-1.408Zm-.419-1.019-.916-2.22-.92,2.22Z" transform="translate(-191.042 -376.179)"/><path class="f" d="M319.557,382.078l-.009-3.479-1.706,2.866h-.6l-1.7-2.791v3.4H314.28v-5.8h1.111l2.17,3.6,2.138-3.6h1.1l.017,5.8Z" transform="translate(-296.584 -376.179)"/><path class="f" d="M435.426,380.24a2.883,2.883,0,0,1-1.135-1.073,3.086,3.086,0,0,1,0-3.073,2.883,2.883,0,0,1,1.135-1.074,3.59,3.59,0,0,1,3.251,0,2.958,2.958,0,0,1,0,5.219,3.59,3.59,0,0,1-3.251,0Zm2.555-.99a1.7,1.7,0,0,0,.65-.659,2.071,2.071,0,0,0,0-1.922,1.693,1.693,0,0,0-.65-.659,1.94,1.94,0,0,0-1.856,0,1.693,1.693,0,0,0-.649.658,2.077,2.077,0,0,0,0,1.922,1.7,1.7,0,0,0,.65.659,1.944,1.944,0,0,0,1.856,0Z" transform="translate(-408.878 -374.631)"/><path class="f" d="M554.17,376.537a1.986,1.986,0,0,1,.874.729,2.185,2.185,0,0,1,0,2.233,1.95,1.95,0,0,1-.874.729,3.3,3.3,0,0,1-1.338.251h-1.168v1.6H550.32v-5.8h2.51A3.228,3.228,0,0,1,554.17,376.537Zm-.493,2.588a.905.905,0,0,0,.315-.741.917.917,0,0,0-.315-.75,1.409,1.409,0,0,0-.916-.261h-1.094v2.013h1.094A1.4,1.4,0,0,0,553.677,379.125Z" transform="translate(-518.205 -376.179)"/><path class="f" d="M647.987,382.078l-1.119-1.615h-1.234v1.615H644.29v-5.8h2.51a3.221,3.221,0,0,1,1.338.257,1.989,1.989,0,0,1,.874.729,2.011,2.011,0,0,1,.305,1.119,1.888,1.888,0,0,1-1.193,1.833l1.3,1.864Zm-.34-4.444a1.412,1.412,0,0,0-.92-.261h-1.093v2.021h1.093a1.4,1.4,0,0,0,.92-.265,1.045,1.045,0,0,0,0-1.495Z" transform="translate(-606.434 -376.179)"/><path class="f" d="M735.635,380.24a2.883,2.883,0,0,1-1.135-1.073,3.086,3.086,0,0,1,0-3.073,2.883,2.883,0,0,1,1.135-1.074,3.59,3.59,0,0,1,3.251,0,2.958,2.958,0,0,1,0,5.219,3.59,3.59,0,0,1-3.251,0Zm2.555-.99a1.7,1.7,0,0,0,.651-.659,2.071,2.071,0,0,0,0-1.922,1.694,1.694,0,0,0-.651-.659,1.938,1.938,0,0,0-1.855,0,1.688,1.688,0,0,0-.65.658,2.071,2.071,0,0,0,0,1.922,1.692,1.692,0,0,0,.65.659,1.943,1.943,0,0,0,1.855,0Z" transform="translate(-690.748 -374.631)"/></g></g></svg>