<svg xmlns="http://www.w3.org/2000/svg" width="24" height="24" viewBox="0 0 24 24"><defs><style>.a{fill:#0288d1;}</style></defs><path class="a" d="M27,3H3V27H27ZM11,21.667H7.636V12.333H11ZM9.259,10.623a1.594,1.594,0,0,1-1.715-1.6,1.63,1.63,0,0,1,1.828-1.6,1.594,1.594,0,0,1,1.715,1.6A1.63,1.63,0,0,1,9.259,10.623ZM23,21.667H19.744v-5.1c0-1.411-.868-1.736-1.193-1.736s-1.411.217-1.411,1.736v5.1H13.776V12.333H17.14v1.3c.433-.76,1.3-1.3,2.929-1.3S23,13.636,23,16.565Z" transform="translate(-3 -3)"/></svg>