<svg xmlns="http://www.w3.org/2000/svg" width="24" height="24" viewBox="0 0 24 24"><defs><style>.a{fill:none;}.b{fill:#2a2e43;}</style></defs><path class="a" d="M0,0H24V24H0Z"/><path class="b" d="M15,16h3a1,1,0,0,0,1-1V9a1,1,0,0,0-1-1H15a1,1,0,0,0-1,1v6A1,1,0,0,0,15,16Zm1-6h1v4H16ZM9,16h3a1,1,0,0,0,1-1V9a1,1,0,0,0-1-1H9A1,1,0,0,0,8,9v6A1,1,0,0,0,9,16Zm1-6h1v4H10ZM6,8A1,1,0,0,0,5,9v6a1,1,0,0,0,2,0V9A1,1,0,0,0,6,8ZM2,6V18a2.006,2.006,0,0,0,2,2H20a2.006,2.006,0,0,0,2-2V6a2.006,2.006,0,0,0-2-2H4A2.006,2.006,0,0,0,2,6ZM19,18H5a1,1,0,0,1-1-1V7A1,1,0,0,1,5,6H19a1,1,0,0,1,1,1V17A1,1,0,0,1,19,18Z"/></svg>