<svg xmlns="http://www.w3.org/2000/svg" width="17.849" height="21.284" viewBox="0 0 17.849 21.284"><defs><style>.a{fill:#43a047;}</style></defs><g transform="translate(158.659 162.938)"><path class="a" d="M177.8,112.056V98.042c0-.086,0-.175,0-.264a.5.5,0,0,0-.162-.35l-1.019-1.019q-.863-.863-1.724-1.724l-1.64-1.64c-.246-.246-.484-.509-.743-.743a.538.538,0,0,0-.423-.112H160.973a1.018,1.018,0,0,0-1.016.963v18.678c0,.205,0,.411,0,.616a1.025,1.025,0,0,0,.7.978,1.22,1.22,0,0,0,.406.048h15.695a1.034,1.034,0,0,0,.842-.393A1.576,1.576,0,0,0,177.8,112.056ZM163.505,103h5.424a.507.507,0,1,1,0,1.014h-5.424a.507.507,0,0,1,0-1.014Zm10.747,5.3h-.02c-.433.013-.869,0-1.305,0h-9.421a.507.507,0,0,1,0-1.014h.02c.433-.013.869,0,1.305,0h9.421a.507.507,0,0,1,0,1.014Zm1.865-10.334s0,.005-.005.01a.4.4,0,0,1-.041.051.363.363,0,0,1-.142.089h0a.348.348,0,0,1-.124.023h-3.561a.386.386,0,0,1-.38-.38V94.192a.384.384,0,0,1,.649-.269l.441.441,3.118,3.118a.378.378,0,0,1,.106.218.312.312,0,0,1,.005.051A.328.328,0,0,1,176.118,97.961Z" transform="translate(-318.615 -255.13)"/></g></svg>