<svg xmlns="http://www.w3.org/2000/svg" xmlns:xlink="http://www.w3.org/1999/xlink" width="211.579" height="235" viewBox="0 0 211.579 235"><defs><style>.a,.g{fill:#fff;}.b{clip-path:url(#a);}.c{fill:#f5f5f5;}.d{fill:#aeaeae;}.e{fill:#707070;}.f{fill:#fafafa;}.f,.g{stroke:#707070;}.h{fill:#e4e4e4;}.i{fill:#3ad29f;}.j{fill:#ffbf19;}.k{fill:#9d4492;}.l{fill:#9bec7d;}.m{fill:#ff623a;}.n{fill:#f73200;}.o{stroke:none;}.p{fill:none;}.q{filter:url(#d);}.r{filter:url(#b);}</style><clipPath id="a"><rect class="a" width="157" height="179" rx="10" transform="translate(-0.416)"/></clipPath><filter id="b" x="47" y="0" width="118" height="118" filterUnits="userSpaceOnUse"><feOffset dy="3" input="SourceAlpha"/><feGaussianBlur stdDeviation="3" result="c"/><feFlood flood-opacity="0.161"/><feComposite operator="in" in2="c"/><feComposite in="SourceGraphic"/></filter><filter id="d" x="75.163" y="29.99" width="61.903" height="58.069" filterUnits="userSpaceOnUse"><feOffset dy="3" input="SourceAlpha"/><feGaussianBlur stdDeviation="3" result="e"/><feFlood flood-opacity="0.161"/><feComposite operator="in" in2="e"/><feComposite in="SourceGraphic"/></filter></defs><g transform="translate(-1722 10175)"><g transform="translate(1275 -10696)"><g class="b" transform="translate(474.416 577)"><rect class="c" width="268.948" height="178.821" transform="translate(-23.672)"/></g><g transform="translate(483.416 712)"><rect class="a" width="139" height="34" rx="10" transform="translate(-0.416)"/><rect class="d" width="114.219" height="6.819" rx="3.41" transform="translate(14.534 13.314)"/></g><g transform="translate(558.611 586.994)"><g transform="translate(0 0)"><rect class="e" width="64.401" height="20.883" rx="10.442"/><g class="f" transform="translate(10.403 6.435)"><circle class="o" cx="4.226" cy="4.226" r="4.226"/><circle class="p" cx="4.226" cy="4.226" r="3.726"/></g><g class="g" transform="translate(17.389 7.006)"><rect class="o" width="39" height="7" rx="3.5"/><rect class="p" x="0.5" y="0.5" width="38" height="6" rx="3"/></g></g></g><g transform="translate(483.602 622.794)"><rect class="h" width="139.174" height="76.381" rx="5" transform="translate(0 0)"/></g></g><g transform="translate(1574.602 -10011)"><g class="r" transform="matrix(1, 0, 0, 1, 147.4, -164)"><circle class="a" cx="50" cy="50" r="50" transform="translate(56 6)"/></g><g class="q" transform="matrix(1, 0, 0, 1, 147.4, -164)"><path class="i" d="M39.426,5.135,32.729,0,14.988,23.136,5.135,15.581,0,22.278,13.2,32.385h0l3.385,2.537Z" transform="translate(89.02 35.99) rotate(8)"/></g></g><g transform="translate(1722 -10155)"><path class="j" d="M5.985,18.364a.433.433,0,0,1-.361-.244,15.423,15.423,0,0,1-1.986-6.2A6.09,6.09,0,0,1,.182,10.111a.588.588,0,0,1-.17-.542C.076,9.23-.23,8.389,3.83,7.338,5.01-.235,5.837.085,6.113.011A.264.264,0,0,1,6.2,0a.433.433,0,0,1,.361.244C6.9.828,7.62,2.919,8.248,7.338c4.039,1.051,3.86,1.892,3.924,2.243a.626.626,0,0,1-.17.542,6.4,6.4,0,0,1-3.545,1.795c-1.084,6.744-2.1,6.373-2.386,6.458A.264.264,0,0,0,5.985,18.364Z" transform="translate(1.092 72.076)"/><path class="k" d="M4.692,11.62a.351.351,0,0,1-.287-.159A17.875,17.875,0,0,1,3.363,7.222,12.463,12.463,0,0,1,.143,6.394.36.36,0,0,1,0,6.054c.043-.212.1-.467,3.284-1.126C4.214.138,4.575.064,4.788.011,4.809.011,4.83,0,4.862,0a.351.351,0,0,1,.287.159A20.179,20.179,0,0,1,6.286,4.928c3.167.659,3.221.913,3.263,1.126a.32.32,0,0,1-.138.34,12.61,12.61,0,0,1-3.253.828c-.85,4.259-1.169,4.333-1.392,4.376A.271.271,0,0,1,4.692,11.62Z" transform="translate(179.534 84.888)"/><path class="l" d="M3.025,7.5a.209.209,0,0,1-.181-.1,6.114,6.114,0,0,1-.855-2.5,4.2,4.2,0,0,1-1.9-.769.207.207,0,0,1-.085-.223c.032-.138-.08-.562,1.982-1C2.584-.18,2.961.032,3.1,0h.043a.209.209,0,0,1,.181.1A7.683,7.683,0,0,1,4.2,2.911c2.041.425,1.937.849,1.958.987a.207.207,0,0,1-.085.223A4.652,4.652,0,0,1,4.2,4.754C3.65,7.5,3.216,7.456,3.068,7.488,3.057,7.488,3.036,7.5,3.025,7.5Z" transform="translate(73.191 10.239)"/><rect class="l" width="3.743" height="9.32" transform="translate(142.622 27.109) rotate(-45)"/><rect class="j" width="3.148" height="7.821" transform="translate(206.253 33.326) rotate(137.939)"/><rect class="j" width="3.147" height="7.822" transform="translate(62.607 134.104) rotate(57.16)"/><rect class="j" width="3.148" height="7.819" transform="translate(189.126 134.278) rotate(30.001)"/><rect class="k" width="3.743" height="9.32" transform="translate(16.933 35.466) rotate(135)"/><rect class="k" width="3.743" height="9.321" transform="translate(159.91 56.955) rotate(57.16)"/><rect class="l" width="3.743" height="9.32" transform="translate(0.579 180.872) rotate(-90)"/><rect class="k" width="3.743" height="9.321" transform="matrix(0.978, 0.211, -0.211, 0.978, 33.908, 189.752)"/><rect class="k" width="3.743" height="9.321" transform="matrix(0.837, 0.547, -0.547, 0.837, 192.584, 167.979)"/><rect class="l" width="3.743" height="9.32" transform="matrix(-0.635, -0.772, 0.772, -0.635, 204.382, 82.067)"/><rect class="m" width="2.935" height="7.29" transform="translate(42.886 43.014) rotate(47.939)"/><rect class="n" width="2.934" height="7.291" transform="matrix(0.37, 0.929, -0.929, 0.37, 6.775, 137.484)"/><rect class="m" width="2.935" height="7.29" transform="translate(108.245 0.114) rotate(47.939)"/><rect class="m" width="2.935" height="7.291" transform="translate(168.491 189.321) rotate(-77.216)"/></g></g></svg>