<svg xmlns="http://www.w3.org/2000/svg" width="28" height="28" viewBox="0 0 28 28"><defs><style>.a{fill:none;}.b{fill:#2a2e43;}</style></defs><path class="a" d="M0,0H28V28H0Z"/><path class="b" d="M22.669,15.136A8.507,8.507,0,0,0,22.742,14a6.947,6.947,0,0,0-.085-1.136l2.465-1.909a.591.591,0,0,0,.146-.737L22.936,6.206a.594.594,0,0,0-.716-.266l-2.9,1.16a8.587,8.587,0,0,0-1.967-1.136L16.914,2.9a.587.587,0,0,0-.583-.5H11.669a.574.574,0,0,0-.571.5l-.437,3.069A8.777,8.777,0,0,0,8.694,7.1l-2.9-1.16a.581.581,0,0,0-.716.266L2.757,10.218a.548.548,0,0,0,.146.737l2.465,1.909a6.691,6.691,0,0,0-.024,2.272L2.878,17.045a.591.591,0,0,0-.146.737l2.331,4.012a.594.594,0,0,0,.716.266l2.9-1.16a8.587,8.587,0,0,0,1.967,1.136l.437,3.069a.6.6,0,0,0,.583.5h4.662a.565.565,0,0,0,.571-.5l.437-3.069A8.338,8.338,0,0,0,19.306,20.9l2.9,1.16a.581.581,0,0,0,.716-.266l2.331-4.012a.558.558,0,0,0-.146-.737ZM14,18.35A4.35,4.35,0,1,1,18.371,14,4.373,4.373,0,0,1,14,18.35Z" transform="translate(0 0)"/></svg>