<svg xmlns="http://www.w3.org/2000/svg" xmlns:xlink="http://www.w3.org/1999/xlink" width="124.2" height="214" viewBox="0 0 124.2 214"><defs><style>.a{fill:#d7d8d7;}.b{fill:url(#a);}.c{fill:url(#b);}.d{fill:#43a047;}.e{fill:url(#c);}.f{fill:#c66b6b;}.g{fill:url(#d);}.h{fill:url(#e);}.i{fill:#0d0e0e;}.j{fill:#fff;}.k{fill:url(#f);}.l{fill:url(#g);}.m{fill:url(#h);}.n{fill:url(#i);}.o{fill:#0a0b0c;}.p{fill:url(#j);}.q{fill:url(#k);}.r{fill:#c06969;}</style><linearGradient id="a" x1="3.224" y1="-2.595" x2="2.331" y2="-2.595" gradientUnits="objectBoundingBox"><stop offset="0" stop-color="#88ff8d"/><stop offset="1" stop-color="#a8ffab"/></linearGradient><linearGradient id="b" x1="3.507" y1="-3.038" x2="2.599" y2="-3.038" gradientUnits="objectBoundingBox"><stop offset="0" stop-color="#4fd468"/><stop offset="1" stop-color="#43a047"/></linearGradient><linearGradient id="c" x1="200.406" y1="-227.583" x2="199.843" y2="-227.583" gradientUnits="objectBoundingBox"><stop offset="0" stop-color="#fad7a1"/><stop offset="0.005" stop-color="#fad7a1"/><stop offset="1" stop-color="#f7c599"/></linearGradient><linearGradient id="d" x1="-2.031" y1="-1.937" x2="-3.031" y2="-1.937" gradientUnits="objectBoundingBox"><stop offset="0" stop-color="#29323c"/><stop offset="1" stop-color="#485563"/></linearGradient><linearGradient id="e" x1="-1.212" y1="-1.944" x2="-1.774" y2="-1.938" gradientUnits="objectBoundingBox"><stop offset="0" stop-color="#47505a"/><stop offset="1" stop-color="#667381"/></linearGradient><linearGradient id="f" x1="-5.278" y1="-2.917" x2="-5.326" y2="-2.635" gradientUnits="objectBoundingBox"><stop offset="0" stop-color="#fad7a1"/><stop offset="0.005" stop-color="#fad7a1"/><stop offset="1" stop-color="#f8c89a"/></linearGradient><linearGradient id="g" x1="1" y1="-2.075" x2="-0.001" y2="-2.075" gradientUnits="objectBoundingBox"><stop offset="0" stop-color="#434343"/><stop offset="1" stop-color="#000101"/></linearGradient><linearGradient id="h" x1="0.612" y1="-3.988" x2="-0.31" y2="-3.988" xlink:href="#a"/><linearGradient id="i" x1="0.577" y1="-4.738" x2="-0.352" y2="-4.738" xlink:href="#b"/><linearGradient id="j" x1="-4.626" y1="-1.617" x2="-3.874" y2="-1.305" xlink:href="#f"/><linearGradient id="k" x1="100.718" y1="-61.817" x2="99.764" y2="-61.817" gradientUnits="objectBoundingBox"><stop offset="0" stop-color="#df6c6f"/><stop offset="0.995" stop-color="#f5d4a1"/></linearGradient></defs><path class="a" d="M963.019,464.7l.382.509c4.2,6.111,5.411,15.087,7.257,22.6,2.419,9.867,7.767,32.084,7.767,32.084l-8.212,3.692L962,469.475Z" transform="translate(-890.574 -433.785)"/><g transform="translate(35.649 31.361)"><path class="b" d="M925.016,539.818l68.434-39.469L973.334,465.4,904.9,504.869Z" transform="translate(-904.9 -465.4)"/><g transform="translate(4.902 4.583)"><path class="c" d="M929.07,537.66,991.2,501.82l-16.87-29.22L912.2,508.441Zm59.649-36.477-59.012,34.058-15.024-26.1,59.012-34.058Z" transform="translate(-912.2 -472.6)"/></g><path class="d" d="M18.812,0,15.686,3.807H9.259V0H4.88V3.807H0V7.233H4.88V10.4H0v3.425H4.88v5.334H8.547l4.368-5.334h5.158v5.334h4.38V13.827H26.61V10.4H22.453V7.233H26.61V3.807H22.453V0ZM12.873,7.233l-2.6,3.17H9.259V7.233Zm5.2.3V10.4H15.72Z" transform="translate(58.579 40.406) rotate(149)"/></g><g transform="translate(82.63 86.172)"><path class="e" d="M960.729,556.975a.535.535,0,0,0,.255-.7.988.988,0,0,0,1.019-.064.787.787,0,0,0,.255-.891c.255.064.637.127.828-.064a.723.723,0,0,0,.191-.509c.063-.573.191-1.21.255-1.783.382.127.827.255,1.209.382.191.064.446.127.573,0,.127-.064.127-.255.127-.382s-.127-.255-.191-.382a2.944,2.944,0,0,0-1.082-1.082l-2.292,1.337a2.773,2.773,0,0,0-.382-.446.837.837,0,0,0-.764-.191c-.255.064-.573.382-.51.637a.726.726,0,0,0-.764-.382.672.672,0,0,0-.573.573.751.751,0,0,0-.955,1.082.411.411,0,0,0-.382.382,1.147,1.147,0,0,0,.064.637c0,.064.064.127.064.191l-.573.318a.573.573,0,0,0,.382.382,2.194,2.194,0,0,1,.573.51,4.132,4.132,0,0,0,.573.509,1.067,1.067,0,0,0,.764.191.611.611,0,0,0,.573-.446A.59.59,0,0,0,960.729,556.975Z" transform="translate(-957.1 -551.5)"/><path class="f" d="M967.719,558.247l-.255-.382c-.191-.255-.382-.573-.636-.891-.191-.318-.446-.637-.573-.891A1.576,1.576,0,0,0,966,555.7a3.79,3.79,0,0,0,.191.446,3.592,3.592,0,0,0,.255.446,5.869,5.869,0,0,0,.318.509,1.924,1.924,0,0,1,.318.445c.128.128.191.255.319.382Z" transform="translate(-965.046 -553.026)"/><path class="f" d="M966.11,557.065s-.127-.191-.318-.446l-.191-.191a.88.88,0,0,1-.191-.255c-.127-.191-.255-.318-.382-.51a5.886,5.886,0,0,1-.318-.509.482.482,0,0,1-.127-.254c-.064-.064-.064-.127-.127-.255a4.554,4.554,0,0,0-.255-.445s.063.191.191.509c.063.064.063.127.127.255.063.064.063.191.127.255a3.549,3.549,0,0,0,.318.509c.127.191.255.318.382.509l.191.191.191.191C965.983,556.938,966.11,557.065,966.11,557.065Z" transform="translate(-962.291 -552.482)"/><path class="f" d="M964.119,556.11a2.3,2.3,0,0,0-.318-.255c-.064-.064-.127-.064-.127-.127l-.127-.127-.318-.318c-.127-.127-.191-.255-.318-.382-.063-.064-.127-.127-.127-.191-.063-.064-.063-.127-.127-.191a2.3,2.3,0,0,0-.254-.318l.191.382c0,.063.064.127.127.191,0,.063.063.127.127.191a2.751,2.751,0,0,0,.7.7c.064.064.127.127.191.127.064.064.127.064.191.127A.474.474,0,0,0,964.119,556.11Z" transform="translate(-959.154 -552.482)"/><path class="f" d="M961.91,553.819a1.5,1.5,0,0,1-.509-.573l.828-.446A3.143,3.143,0,0,0,961.91,553.819Z" transform="translate(-956.626 -551.973)"/></g><path class="g" d="M968.271,542.8l20.88,125.664-8.467-1.91L954.9,579.786,947.2,543.5Z" transform="translate(-891.88 -462.167)"/><path class="h" d="M1026.979,543.1l-26.673.764-.827,69.389-15.279,54.3,8.276,1.019,25.337-55Z" transform="translate(-953.262 -462.276)"/><g transform="translate(87.086 203.56)"><path class="i" d="M944.287,737.428c-3.629-1.337-7.639-1.464-11.522-1.528-.255,2.928-1.146,5.793-1.464,8.722l20.307.573C951.1,741.693,947.915,738.829,944.287,737.428Z" transform="translate(-931.3 -735.9)"/></g><g transform="translate(39.443 26.061)"><path class="j" d="M981.872,480.072c.573,3.756,1.21,7.83,1.846,11.841,1.91,11.586,3.82,22.408,3.82,22.408s13.5-1.146,20.5-1.91c2.419-.255,8.912-.828,8.912-.828s-2.61-34.758-3.056-43.989c-.064-1.337-.064-3.947-.764-5.093-.955-1.591-2.1-1.464-3.883-2.037a77.312,77.312,0,0,0-7.512-2.1c-3.947-1.082-8.212-2.037-12.1-.446a1.9,1.9,0,0,0-.509.255c-3.247,1.528-7.13,2.419-9.04,5.793C979.707,464.666,980.6,471.605,981.872,480.072Z" transform="translate(-980 -457.074)"/></g><g transform="translate(48.031 16.396)"><path class="k" d="M1009.93,443.489a6.407,6.407,0,0,0-4.456-1.591,3.6,3.6,0,0,0-3.438,2.164c-.318.955,1.273,1.655,1.464,2.674.382,1.974-.891,4.456-1.21,6.43-.382,2.292-1.273,4.583-.636,6.812.636,2.292,2.8,3.883,5.029,4.647a8.68,8.68,0,0,0,5.538.064,5.737,5.737,0,0,0,3.756-3.883,9.857,9.857,0,0,0-.573-5.22c-.764-2.483-1.655-4.9-2.546-7.321A13.629,13.629,0,0,0,1009.93,443.489Z" transform="translate(-1001.432 -441.893)"/></g><g transform="translate(34.67 88.701)"><path class="j" d="M1013.509,671.924c.064,0,.191-.064.191-.127l11.013-30.938c2.992-8.339,6.047-17,7.639-25.909,1.655-9.676,1.528-19.607,1.4-29.22l-.446-30.047c0-.127-.127-.255-.254-.191-.127,0-.255.127-.191.254l.445,30.047c.127,9.613.319,19.544-1.4,29.156-1.528,8.912-4.583,17.506-7.575,25.846l-11.013,30.938a.233.233,0,0,0,.127.318C1013.445,671.924,1013.445,671.924,1013.509,671.924Z" transform="translate(-1013.293 -555.474)"/></g><g transform="translate(45.812 27.987)"><path class="j" d="M1014.153,462.965a5.359,5.359,0,0,1,2.419,6.3,8.632,8.632,0,0,1-5.029,5.093,12.567,12.567,0,0,1-10.886-.573,6.994,6.994,0,0,1-2.992-2.928c-.955-1.973-.445-4.329.127-6.493.382-1.591.891-3.31,2.228-4.265a15.807,15.807,0,0,0,5.857,5.729,5.187,5.187,0,0,0,2.737.891,5.3,5.3,0,0,0,3.119-1.337C1012.5,464.62,1013.262,463.729,1014.153,462.965Z" transform="translate(-997.133 -460.1)"/></g><g transform="translate(46.989 34.128)"><path class="j" d="M1003.711,470.1a5.758,5.758,0,0,0-3.183,2.546,4.683,4.683,0,0,0-.318,4.01c.891,2.228,3.374,3.374,5.729,4.011a13.491,13.491,0,0,0,5.284.509,6.932,6.932,0,0,0,4.583-2.419,3.741,3.741,0,0,0,.828-2.292,4.416,4.416,0,0,0-1.528-2.737,13.393,13.393,0,0,0-7.193-3.756A7.838,7.838,0,0,0,1003.711,470.1Z" transform="translate(-999.9 -469.747)"/></g><path class="l" d="M992.825,470.283a1.94,1.94,0,0,1,.764-1.4,3.037,3.037,0,0,1,1.846-.382,2.191,2.191,0,0,1,1.273.255,1.8,1.8,0,0,1,.7,1.082,8.347,8.347,0,0,1-.446,6.3l.127.064,8.467,36.922-2.292,9.931-6.684-8.276-1.91-38.259a5.339,5.339,0,0,1-1.146-1.782,13.985,13.985,0,0,1-.573-2.737A5.477,5.477,0,0,1,992.825,470.283Z" transform="translate(-937.314 -435.166)"/><g transform="translate(46.599 27.096)"><g transform="translate(0)"><path class="j" d="M1012.456,458.7a62.563,62.563,0,0,0,8.276,6.43,65.261,65.261,0,0,1-1.592,9.358c-2.674-4.2-6.366-9.231-9.04-13.432C1011.055,460.546,1011.437,459.273,1012.456,458.7Z" transform="translate(-1010.101 -458.7)"/></g></g><path class="a" d="M1029,492.837c.573,3.756,1.209,7.83,1.846,11.841l2.037-.573V492.2Z" transform="translate(-987.685 -443.778)"/><g transform="translate(57.293 26.644)"><g transform="translate(0)"><path class="j" d="M1002.806,458c.891-.127,2.355,1.655,3.246,1.464.382,5.284-.573,8.785-2.165,13.814-1.528-2.674-3.183-5.6-4.52-8.4A23.229,23.229,0,0,0,1002.806,458Z" transform="translate(-999.368 -457.99)"/></g></g><g transform="translate(0 49.44)"><path class="m" d="M965.3,533.269l77.219,16.679,8.531-39.405L973.831,493.8Z" transform="translate(-965.3 -493.8)"/><g transform="translate(4.393 4.074)"><path class="n" d="M1041.889,548.327l7.13-32.976L978.93,500.2l-7.13,32.976Zm5.029-31.575-6.366,29.411-66.588-14.387,6.366-29.411Z" transform="translate(-971.8 -500.2)"/></g><path class="d" d="M18.812,19.161l-3.126-3.807H9.259v3.807H4.88V15.354H0V11.929H4.88V8.759H0V5.334H4.88V0H8.547l4.368,5.334h5.158V0h4.38V5.334H26.61V8.759H22.453v3.17H26.61v3.426H22.453v3.807Zm-5.939-7.233-2.6-3.17H9.259v3.17Zm5.2-.3V8.759H15.72Z" transform="translate(32.222 16.177) rotate(13)"/></g><g transform="translate(46.445 27.987)"><g transform="translate(0)"><path class="o" d="M1008.636,475.187l-9.1-14.005c-.064-.064,0-.127.063-.191s.127,0,.191.064l8.721,13.5c.637-2.674,1.146-5.538,1.591-8.53l.064-.446.191.382c.7,1.337,1.464,2.674,2.165,3.947.7,1.209,1.337,2.419,2.037,3.692a27.779,27.779,0,0,0,2.1-13.368.137.137,0,0,1,.127-.127h0a.137.137,0,0,1,.127.127,28.031,28.031,0,0,1-2.228,13.814l-.128.255-.127-.255c-.7-1.337-1.464-2.674-2.164-3.947-.637-1.146-1.337-2.355-1.974-3.565-.446,2.992-.955,5.793-1.592,8.4Z" transform="translate(-999.506 -460.1)"/></g></g><g transform="translate(58.262 3.666)"><g transform="translate(0)"><path class="o" d="M1002.055,421.9a10.4,10.4,0,0,0,.573,5.729,13.548,13.548,0,0,0,3.247,4.774c-.064-1.4.127-2.8.191-4.2a8.017,8.017,0,0,0-.7-4.074A3.742,3.742,0,0,0,1002.055,421.9Z" transform="translate(-1001.877 -421.896)"/></g></g><g transform="translate(45.373 1.672)"><path class="p" d="M1000.911,426.489a20.19,20.19,0,0,0,4.074,12.923c3.438,4.52,10.122,5.156,12.8-.637a11.726,11.726,0,0,0,.446-7.384c-1.019-4.138-3.119-9.931-7.193-11.9-2.674-1.273-6.239-.891-8.212,1.337A8.6,8.6,0,0,0,1000.911,426.489Z" transform="translate(-1000.894 -418.763)"/></g><g transform="translate(43.37 0)"><path class="o" d="M1020.29,418.76c-.063-.127-.344-2.862-4.583-3.491s-13.877,6.047-13.114,8.02a2.467,2.467,0,0,1,.063,1.655,9.9,9.9,0,0,0,.318,4.9c.828,2.61,3.183,4.711,4.965,6.684a15.592,15.592,0,0,1-1.655-5.029,1.538,1.538,0,0,1,.382-1.273,1.2,1.2,0,0,1,1.591.255,5.3,5.3,0,0,1,1.019,1.973,5.141,5.141,0,0,0,1.273-.7c-1.082-1.973-3.692-7.512.318-8.276.764-.127,1.655.127,2.419-.064a5.788,5.788,0,0,0,2.419-1.528c1.655-1.4,2.674-.637,4.583-.573C1021.372,421.379,1020.353,418.887,1020.29,418.76Z" transform="translate(-1002.483 -415.227)"/></g><path class="j" d="M1023.881,505.023a4.1,4.1,0,0,0,4.329-.255,11.879,11.879,0,0,0,3.247-3.183c1.782-2.228,3.565-4.456,5.347-6.621,5.73-7.194,11.714-14.833,13.05-23.872.382-2.483.064-5.538-2.165-6.748-1.337-.7-3.183-1.146-4.456-.446a8.487,8.487,0,0,0-3.119,2.228c-4.456,5.347-7.958,12.8-11.459,18.78-2.546,4.392-5.156,8.849-6.3,13.814C1021.843,500.949,1021.907,503.813,1023.881,505.023Z" transform="translate(-1000.39 -433.365)"/><g transform="translate(39.174 94.254)"><path class="q" d="M1020.641,565.854a4.292,4.292,0,0,0,.318,2.164,10.565,10.565,0,0,0,1.655,2.992c.191.255.445.51.7.51a1.861,1.861,0,0,0,.573-.128,2.25,2.25,0,0,1,.637.128h0a1.59,1.59,0,0,0,.509.063h.064a.545.545,0,0,0,.382-.445h0l.064.064c.064.063.191.127.255.191a.884.884,0,0,0,.573,0l.382-.191a1.933,1.933,0,0,0,.446-.318c.127-.064.255-.191.382-.064.064,0,.064.064.128.064h0a2.808,2.808,0,0,0,1.019.382c.127,0,.254.064.382,0a.876.876,0,0,0,.255-.191,2.674,2.674,0,0,0,.509-1.4,3.742,3.742,0,0,1-1.337-.891,2.8,2.8,0,0,1-.764-1.146.9.9,0,0,1-.063-.891,1.092,1.092,0,0,1,.955-.382h2.355a1.76,1.76,0,0,0,.573-.064.474.474,0,0,0,.127-.891,1.027,1.027,0,0,0-.573-.191,40.62,40.62,0,0,0-9.231-1.018C1021.087,564.135,1020.7,565.09,1020.641,565.854Z" transform="translate(-1020.6 -564.196)"/><path class="r" d="M1027.2,572.9a3.082,3.082,0,0,1,.509,1.337,1.939,1.939,0,0,0,.446-.318c.127-.064.254-.191.382-.064.064,0,.064.064.127.064,0-.064-.063-.064-.127-.128C1028.156,573.473,1027.583,573.346,1027.2,572.9Z" transform="translate(-1021.494 -567.359)"/><path class="r" d="M1030.8,574a2.285,2.285,0,0,1,.446,1.146h.064a.546.546,0,0,0,.382-.446h0A10.855,10.855,0,0,1,1030.8,574Z" transform="translate(-1026.813 -567.758)"/></g><g transform="translate(21.752 62.278)"><path class="j" d="M1053.821,545.881c.573-.637-1.082-3.883-1.337-4.456-.7-1.973-1.464-3.947-2.165-5.92-1.4-3.883-2.865-7.767-4.265-11.586-1.209-3.31-2.61-6.875-5.6-8.849a6.126,6.126,0,0,0-3.883-1.082c-3.183.382-3.947,3.819-3.183,6.43a15.058,15.058,0,0,0,1.719,3.692c4.9,8.658,9.931,17.188,15.215,25.591C1050.256,549.637,1053.5,546.263,1053.821,545.881Z" transform="translate(-1033.112 -513.966)"/></g><g transform="translate(29.284 203.751)"><path class="i" d="M1035.705,738.3c-3.5-1.528-7.512-1.91-11.4-2.1-.446,2.865-1.465,5.666-1.91,8.594l20.116,1.655C1042.263,742.884,1039.207,739.892,1035.705,738.3Z" transform="translate(-1022.401 -736.2)"/></g></svg>