<svg xmlns="http://www.w3.org/2000/svg" width="98.906" height="134.903" viewBox="0 0 98.906 134.903"><defs><style>.a{fill:#ebf0f3;}.b{fill:#cecece;}.c{fill:#64798a;}.d{fill:#27a2db;}.e{fill:#e56353;}.f{fill:#d5d6db;}</style></defs><g transform="translate(-298.583 -259.375)"><g transform="translate(298.583 259.375)"><path class="a" d="M397.489,390.526v-130.9l-9.668,9.668-9.915-9.916-9.916,9.916-9.915-9.916-9.916,9.916-9.915-9.916-9.915,9.916-9.916-9.916-9.915,9.916-9.915-9.916v131.4l9.915-9.915,9.915,9.915,9.916-9.915,9.915,9.915,9.916-9.915,9.915,9.915,9.915-9.915,9.916,9.915,9.915-9.915Z" transform="translate(-298.583 -259.375)"/><path class="b" d="M377.906,702.669l-9.916-9.915-9.915,9.915-9.915-9.915-9.916,9.915-9.915-9.915-9.916,9.915-9.915-9.915-9.915,9.915v3.5l9.915-9.915,9.915,9.915,9.916-9.915,9.915,9.915,9.916-9.915,9.915,9.915,9.915-9.915,9.916,9.915,9.915-9.915,9.668,9.667v-3.5l-9.668-9.667Z" transform="translate(-298.583 -571.269)"/><path class="c" d="M409.326,406.5H336.26a3.28,3.28,0,0,0-3.277,3.276v49.664a3.28,3.28,0,0,0,3.277,3.276h73.067a3.28,3.28,0,0,0,3.276-3.276V409.779A3.28,3.28,0,0,0,409.326,406.5Zm1.524,3.276v42.305H394.679V408.255h14.647A1.526,1.526,0,0,1,410.851,409.779ZM377.4,453.836h15.527v7.13H377.4Zm0-1.752V408.255h15.527v43.829Zm-42.666,7.359V409.779a1.526,1.526,0,0,1,1.525-1.524h39.389v52.711H336.26A1.526,1.526,0,0,1,334.735,459.443Zm74.591,1.524H394.679v-7.13h16.172v5.607A1.526,1.526,0,0,1,409.326,460.966Z" transform="translate(-323.34 -365.26)"/><g transform="translate(63.599 107.664)"><path class="d" d="M549.376,646.957h-22.16a1.752,1.752,0,0,1,0-3.5h22.16a1.752,1.752,0,0,1,0,3.5Z" transform="translate(-525.464 -643.453)"/></g><path class="c" d="M375.052,435.3H352.52a1.316,1.316,0,1,0,0,2.628h22.532a1.316,1.316,0,1,0,0-2.628Z" transform="translate(-336.4 -385.984)"/><path class="e" d="M356.905,328.851H334.373a1.316,1.316,0,1,0,0,2.628h22.532a1.316,1.316,0,1,0,0-2.628Z" transform="translate(-323.34 -309.376)"/><path class="f" d="M550.641,328.851H528.109a1.316,1.316,0,1,0,0,2.628h22.532a1.316,1.316,0,1,0,0-2.628Z" transform="translate(-462.768 -309.376)"/><path class="f" d="M365.665,357.189H334.373a1.316,1.316,0,1,0,0,2.628h31.292a1.316,1.316,0,1,0,0-2.628Z" transform="translate(-323.34 -329.77)"/><path class="c" d="M370.978,461.457H352.52a1.316,1.316,0,1,0,0,2.628h18.458a1.316,1.316,0,1,0,0-2.628Z" transform="translate(-336.4 -404.81)"/><path class="c" d="M510.756,461.457h-6.375a1.316,1.316,0,1,0,0,2.628h6.375a1.316,1.316,0,1,0,0-2.628Z" transform="translate(-445.691 -404.81)"/><path class="c" d="M510.756,487.615h-6.375a1.316,1.316,0,1,0,0,2.628h6.375a1.316,1.316,0,1,0,0-2.628Z" transform="translate(-445.691 -423.635)"/><path class="c" d="M510.756,435.3h-6.375a1.316,1.316,0,1,0,0,2.628h6.375a1.316,1.316,0,1,0,0-2.628Z" transform="translate(-445.691 -385.984)"/><path class="c" d="M573.607,461.457h-6.375a1.316,1.316,0,1,0,0,2.628h6.375a1.316,1.316,0,1,0,0-2.628Z" transform="translate(-490.924 -404.81)"/><path class="c" d="M573.607,487.615h-6.375a1.316,1.316,0,1,0,0,2.628h6.375a1.316,1.316,0,1,0,0-2.628Z" transform="translate(-490.924 -423.635)"/><path class="c" d="M510.756,582.965h-6.375a1.316,1.316,0,1,0,0,2.628h6.375a1.316,1.316,0,1,0,0-2.628Z" transform="translate(-445.691 -492.257)"/><path class="c" d="M573.607,582.965h-6.375a1.316,1.316,0,1,0,0,2.628h6.375a1.316,1.316,0,1,0,0-2.628Z" transform="translate(-490.924 -492.257)"/><path class="c" d="M573.607,435.3h-6.375a1.316,1.316,0,1,0,0,2.628h6.375a1.316,1.316,0,1,0,0-2.628Z" transform="translate(-490.924 -385.984)"/><path class="c" d="M379.976,487.615H352.52a1.316,1.316,0,1,0,0,2.628h27.456a1.316,1.316,0,1,0,0-2.628Z" transform="translate(-336.4 -423.635)"/></g></g></svg>