<svg xmlns="http://www.w3.org/2000/svg" width="251.959" height="34.989" viewBox="0 0 251.959 34.989"><defs><style>.a{fill:#fff;}</style></defs><g transform="translate(-183.72 -17.361)"><g transform="translate(183.72 17.361)"><path class="a" d="M234.56,43.783l2.159-.574V31.164H266.05v3.354l2.387-.91V29H234.56Z" transform="translate(-228.728 -27.665)"/><path class="a" d="M234.56,205.071l2.159-.656v3.411h29.217V196.459l2.5-.459v14.5H234.56Z" transform="translate(-228.728 -175.506)"/><path class="a" d="M233.32,33.536s50.7-17.962,63.776-16.029C297.1,17.507,234.457,34.218,233.32,33.536Z" transform="translate(-227.63 -17.361)"/><path class="a" d="M183.752,62.8s70.144-23.76,83.9-22.055C267.651,40.744,181.822,64.277,183.752,62.8Z" transform="translate(-183.72 -37.984)"/><path class="a" d="M233.32,146.186s52.407-19.1,63.776-16.483C297.1,129.7,238.208,145.391,233.32,146.186Z" transform="translate(-227.63 -116.597)"/></g><g transform="translate(277.421 25.695)"><path class="a" d="M36.878,377.1a6.339,6.339,0,0,1,2.793,2.321,6.972,6.972,0,0,1,0,7.117,6.225,6.225,0,0,1-2.784,2.321,10.63,10.63,0,0,1-4.27.792H28.9v5.091H24.62V376.28h8A10.258,10.258,0,0,1,36.878,377.1Zm-1.57,8.242a2.887,2.887,0,0,0,1-2.36,2.921,2.921,0,0,0-1-2.387,4.486,4.486,0,0,0-2.918-.831H28.9v6.409h3.482A4.479,4.479,0,0,0,35.309,385.339Z" transform="translate(-24.62 -375.959)"/><path class="a" d="M130.36,394.742,126.8,389.6h-3.929v5.143H118.59V376.28h7.993a10.266,10.266,0,0,1,4.26.817,6.322,6.322,0,0,1,2.782,2.321,6.4,6.4,0,0,1,.973,3.562,6.013,6.013,0,0,1-3.8,5.836l4.141,5.935Zm-1.082-14.149a4.5,4.5,0,0,0-2.929-.831h-3.48V386.2h3.48a4.444,4.444,0,0,0,2.929-.844,3.328,3.328,0,0,0,0-4.76Z" transform="translate(-100.311 -375.959)"/><path class="a" d="M216.457,390.787h-8.57l-1.636,3.955H201.87l8.23-18.462h4.221l8.255,18.462h-4.484Zm-1.334-3.245-2.918-7.069-2.929,7.069Z" transform="translate(-167.392 -375.959)"/><path class="a" d="M331.082,394.742l-.027-11.078-5.433,9.127H323.7l-5.408-8.887v10.838H314.28V376.28h3.536l6.909,11.477,6.808-11.477h3.5l.053,18.462Z" transform="translate(-257.936 -375.959)"/><path class="a" d="M438.8,392.491a9.181,9.181,0,0,1-3.614-3.416,9.825,9.825,0,0,1,0-9.786,9.181,9.181,0,0,1,3.614-3.42,11.432,11.432,0,0,1,10.352,0,9.419,9.419,0,0,1,0,16.618,11.432,11.432,0,0,1-10.352,0Zm8.137-3.151a5.4,5.4,0,0,0,2.07-2.1,6.594,6.594,0,0,0,0-6.12,5.39,5.39,0,0,0-2.07-2.1,6.176,6.176,0,0,0-5.909,0,5.39,5.39,0,0,0-2.066,2.095,6.614,6.614,0,0,0,0,6.12,5.4,5.4,0,0,0,2.07,2.1,6.189,6.189,0,0,0,5.909,0Z" transform="translate(-354.272 -374.631)"/><path class="a" d="M562.578,377.1a6.322,6.322,0,0,1,2.782,2.321,6.958,6.958,0,0,1,0,7.11,6.21,6.21,0,0,1-2.782,2.321,10.5,10.5,0,0,1-4.26.8H554.6v5.091H550.32V376.28h7.991A10.278,10.278,0,0,1,562.578,377.1Zm-1.57,8.242a2.882,2.882,0,0,0,1-2.36,2.92,2.92,0,0,0-1-2.387,4.486,4.486,0,0,0-2.918-.831h-3.482v6.409h3.482A4.462,4.462,0,0,0,561.009,385.339Z" transform="translate(-448.062 -375.959)"/><path class="a" d="M656.06,394.742,652.5,389.6h-3.929v5.143H644.29V376.28h7.993a10.258,10.258,0,0,1,4.26.817,6.334,6.334,0,0,1,2.782,2.321,6.4,6.4,0,0,1,.973,3.562,6.013,6.013,0,0,1-3.8,5.836l4.141,5.935Zm-1.082-14.149a4.5,4.5,0,0,0-2.929-.831h-3.48V386.2h3.48a4.444,4.444,0,0,0,2.929-.844,3.328,3.328,0,0,0,0-4.76Z" transform="translate(-523.753 -375.959)"/><path class="a" d="M739.01,392.491a9.181,9.181,0,0,1-3.614-3.416,9.825,9.825,0,0,1,0-9.786,9.181,9.181,0,0,1,3.614-3.42,11.432,11.432,0,0,1,10.352,0,9.418,9.418,0,0,1,0,16.618,11.432,11.432,0,0,1-10.352,0Zm8.135-3.151a5.407,5.407,0,0,0,2.072-2.1,6.594,6.594,0,0,0,0-6.12,5.393,5.393,0,0,0-2.072-2.1,6.172,6.172,0,0,0-5.907,0,5.377,5.377,0,0,0-2.07,2.095,6.594,6.594,0,0,0,0,6.12,5.389,5.389,0,0,0,2.07,2.1,6.186,6.186,0,0,0,5.907,0Z" transform="translate(-596.086 -374.631)"/></g></g></svg>